<?xml version="1.0" encoding="utf-8" ?>
<svg baseProfile="tiny" height="100%" version="1.2" width="100%" xmlns="http://www.w3.org/2000/svg" xmlns:ev="http://www.w3.org/2001/xml-events" xmlns:xlink="http://www.w3.org/1999/xlink"><defs /><path d="M 438.0,979.0 L 439.0,979.0 Z" fill="#f0f0f0" /><path d="M 570.0,975.0 Z" fill="#f1eff0" /><path d="M 941.0,971.0 L 942.0,971.0 Z" fill="#e9f2ee" /><path d="M 954.0,966.0 Z" fill="#ebf0ea" /><path d="M 367.0,966.0 Z" fill="#f0f0f0" /><path d="M 352.0,964.0 Z" fill="#efefef" /><path d="M 626.0,963.0 L 627.0,963.0 Z" fill="#eeeeee" /><path d="M 355.0,963.0 Z" fill="#ededed" /><path d="M 352.0,962.0 Z" fill="#e7e7e7" /><path d="M 972.0,958.0 Z" fill="#f1ebef" /><path d="M 781.0,958.0 Z" fill="#f4e9f1" /><path d="M 651.0,958.0 Z" fill="#f0f0f0" /><path d="M 335.0,957.0 Z" fill="#f0f0f0" /><path d="M 325.0,957.0 Z" fill="#f0f0f0" /><path d="M 655.0,955.0 Z" fill="#efefef" /><path d="M 655.0,953.0 Z" fill="#ededed" /><path d="M 312.0,950.0 Z" fill="#eeeeee" /><path d="M 768.0,949.0 Z" fill="#f4efe9" /><path d="M 304.0,947.0 Z" fill="#f0f0f0" /><path d="M 690.0,942.0 Z" fill="#ededed" /><path d="M 688.0,940.0 L 687.0,941.0 L 688.0,940.0 L 689.0,940.0 Z" fill="#edeced" /><path d="M 755.0,939.0 Z" fill="#edece7" /><path d="M 277.0,934.0 Z" fill="#eeeeee" /><path d="M 1007.0,931.0 Z" fill="#e9f6e4" /><path d="M 1014.0,927.0 Z" fill="#fce5ef" /><path d="M 261.0,927.0 Z" fill="#f0eeef" /><path d="M 729.0,917.0 Z" fill="#f4eeee" /><path d="M 708.0,910.0 L 708.0,911.0 Z" fill="#efefef" /><path d="M 724.0,908.0 Z" fill="#ecefe8" /><path d="M 706.0,905.0 Z" fill="#f0f0f0" /><path d="M 224.0,905.0 Z" fill="#eeeced" /><path d="M 1038.0,903.0 Z" fill="#f3efec" /><path d="M 220.0,902.0 Z" fill="#f0f0f0" /><path d="M 699.0,898.0 Z" fill="#e9e7e8" /><path d="M 200.0,894.0 Z" fill="#f0f0f0" /><path d="M 1042.0,891.0 Z" fill="#ecf1ed" /><path d="M 203.0,890.0 L 204.0,891.0 Z" fill="#ececec" /><path d="M 194.0,886.0 Z" fill="#efefef" /><path d="M 192.0,882.0 Z" fill="#ebebeb" /><path d="M 690.0,880.0 Z" fill="#efefef" /><path d="M 179.0,873.0 Z" fill="#ececec" /><path d="M 700.0,871.0 Z" fill="#ebefee" /><path d="M 178.0,871.0 Z" fill="#ededed" /><path d="M 176.0,870.0 Z" fill="#efefef" /><path d="M 171.0,870.0 Z" fill="#ececec" /><path d="M 163.0,860.0 Z" fill="#f0eeef" /><path d="M 161.0,856.0 Z" fill="#e5e3e4" /><path d="M 156.0,852.0 Z" fill="#ececec" /><path d="M 151.0,847.0 Z" fill="#f1eff0" /><path d="M 148.0,846.0 Z" fill="#e4e2e3" /><path d="M 145.0,846.0 L 146.0,847.0 Z" fill="#efedee" /><path d="M 144.0,841.0 L 144.0,842.0 L 145.0,843.0 L 144.0,842.0 Z" fill="#ebe9ea" /><path d="M 1065.0,839.0 Z" fill="#e9f3ea" /><path d="M 142.0,838.0 Z" fill="#ededed" /><path d="M 688.0,836.0 L 688.0,837.0 Z" fill="#efefed" /><path d="M 137.0,836.0 Z" fill="#eaeaea" /><path d="M 139.0,835.0 L 140.0,836.0 L 139.0,837.0 L 139.0,838.0 L 140.0,838.0 L 139.0,837.0 L 140.0,836.0 Z" fill="#eaeaea" /><path d="M 131.0,827.0 L 130.0,828.0 Z" fill="#f0eeef" /><path d="M 125.0,823.0 Z" fill="#efefef" /><path d="M 113.0,810.0 Z" fill="#f0eeef" /><path d="M 108.0,801.0 L 108.0,802.0 Z" fill="#e9e9e9" /><path d="M 666.0,800.0 Z" fill="#eeeeee" /><path d="M 96.0,789.0 L 96.0,790.0 Z" fill="#efefef" /><path d="M 90.0,778.0 Z" fill="#f0f0f0" /><path d="M 89.0,776.0 Z" fill="#e8e8e8" /><path d="M 85.0,771.0 Z" fill="#f0f0f0" /><path d="M 80.0,764.0 Z" fill="#f1eff0" /><path d="M 72.0,751.0 L 73.0,752.0 L 72.0,753.0 L 73.0,752.0 Z" fill="#eeeeee" /><path d="M 683.0,750.0 L 683.0,751.0 Z" fill="#eaf2e8" /><path d="M 668.0,747.0 L 668.0,748.0 Z" fill="#ededed" /><path d="M 66.0,747.0 Z" fill="#efefef" /><path d="M 65.0,743.0 Z" fill="#ededed" /><path d="M 669.0,740.0 L 669.0,741.0 Z" fill="#eeeeee" /><path d="M 102.0,740.0 Z" fill="#f1eff0" /><path d="M 670.0,735.0 Z" fill="#efedee" /><path d="M 108.0,728.0 L 109.0,729.0 Z" fill="#ececec" /><path d="M 105.0,728.0 Z" fill="#efefef" /><path d="M 672.0,727.0 Z" fill="#efefef" /><path d="M 113.0,727.0 L 112.0,728.0 Z" fill="#edebec" /><path d="M 113.0,722.0 Z" fill="#f0eeef" /><path d="M 117.0,720.0 Z" fill="#f0eeef" /><path d="M 85.0,720.0 Z" fill="#eeeeee" /><path d="M 121.0,716.0 Z" fill="#e7e7e7" /><path d="M 122.0,714.0 Z" fill="#eaeaea" /><path d="M 81.0,713.0 Z" fill="#eeeeee" /><path d="M 681.0,700.0 Z" fill="#ededed" /><path d="M 682.0,698.0 Z" fill="#f0f0f0" /><path d="M 74.0,696.0 Z" fill="#ececec" /><path d="M 72.0,696.0 Z" fill="#efefef" /><path d="M 41.0,695.0 Z" fill="#efefef" /><path d="M 144.0,692.0 Z" fill="#e1dfe0" /><path d="M 1052.0,691.0 Z" fill="#eaf4e9" /><path d="M 70.0,690.0 Z" fill="#efefef" /><path d="M 156.0,681.0 L 156.0,682.0 Z" fill="#eaeaea" /><path d="M 708.0,679.0 Z" fill="#f1f1e5" /><path d="M 694.0,677.0 L 694.0,678.0 Z" fill="#e8e8e8" /><path d="M 710.0,675.0 Z" fill="#eff2eb" /><path d="M 161.0,674.0 L 160.0,675.0 Z" fill="#e7e5e6" /><path d="M 32.0,671.0 Z" fill="#f1eff0" /><path d="M 714.0,668.0 Z" fill="#f2f0e4" /><path d="M 698.0,667.0 Z" fill="#efefef" /><path d="M 169.0,667.0 Z" fill="#efefef" /><path d="M 715.0,666.0 Z" fill="#edeee6" /><path d="M 171.0,666.0 Z" fill="#efefef" /><path d="M 714.0,664.0 Z" fill="#f2eeef" /><path d="M 27.0,663.0 Z" fill="#ececec" /><path d="M 180.0,661.0 Z" fill="#e4e2e3" /><path d="M 177.0,660.0 Z" fill="#f0eeef" /><path d="M 27.0,658.0 L 27.0,659.0 Z" fill="#ececec" /><path d="M 708.0,651.0 Z" fill="#e8e8e8" /><path d="M 192.0,651.0 L 191.0,652.0 Z" fill="#eaeaea" /><path d="M 187.0,651.0 Z" fill="#f0f0f0" /><path d="M 738.0,639.0 Z" fill="#edf2ec" /><path d="M 211.0,638.0 Z" fill="#e0e0e0" /><path d="M 741.0,635.0 Z" fill="#e8f5eb" /><path d="M 216.0,634.0 L 215.0,635.0 Z" fill="#e9e9e9" /><path d="M 46.0,631.0 Z" fill="#f0eeef" /><path d="M 1004.0,628.0 Z" fill="#ebeee3" /><path d="M 729.0,627.0 L 729.0,628.0 Z" fill="#eeeeee" /><path d="M 731.0,625.0 Z" fill="#ececec" /><path d="M 229.0,625.0 L 228.0,626.0 L 227.0,626.0 L 228.0,626.0 Z" fill="#edebec" /><path d="M 44.0,625.0 Z" fill="#f1eff0" /><path d="M 998.0,623.0 Z" fill="#e9f5e9" /><path d="M 734.0,623.0 Z" fill="#e8e8e8" /><path d="M 237.0,621.0 Z" fill="#ededed" /><path d="M 42.0,618.0 Z" fill="#f0f0f0" /><path d="M 242.0,617.0 L 243.0,617.0 Z" fill="#e8e8e8" /><path d="M 734.0,616.0 Z" fill="#ececec" /><path d="M 771.0,612.0 Z" fill="#e8f3ef" /><path d="M 768.0,612.0 Z" fill="#edecf2" /><path d="M 251.0,612.0 L 251.0,613.0 Z" fill="#efefef" /><path d="M 712.0,604.0 Z" fill="#f0f0f0" /><path d="M 267.0,604.0 Z" fill="#efefef" /><path d="M 786.0,603.0 Z" fill="#e0ebe5" /><path d="M 709.0,603.0 L 710.0,603.0 Z" fill="#ededed" /><path d="M 269.0,603.0 Z" fill="#eeeeee" /><path d="M 704.0,600.0 Z" fill="#ececec" /><path d="M 282.0,597.0 Z" fill="#ededed" /><path d="M 692.0,595.0 Z" fill="#ededed" /><path d="M 285.0,595.0 Z" fill="#f0f0f0" /><path d="M 805.0,593.0 Z" fill="#efefef" /><path d="M 696.0,593.0 Z" fill="#f0f0f0" /><path d="M 688.0,593.0 Z" fill="#ececec" /><path d="M 290.0,593.0 Z" fill="#f0eeef" /><path d="M 831.0,585.0 Z" fill="#f4ebec" /><path d="M 872.0,582.0 L 871.0,583.0 L 856.0,583.0 L 855.0,584.0 L 849.0,584.0 L 848.0,585.0 L 842.0,585.0 L 841.0,586.0 L 838.0,586.0 L 837.0,587.0 L 833.0,587.0 L 832.0,588.0 L 829.0,588.0 L 828.0,589.0 L 826.0,589.0 L 825.0,590.0 L 822.0,590.0 L 821.0,591.0 L 818.0,591.0 L 817.0,592.0 L 816.0,592.0 L 815.0,593.0 L 814.0,593.0 L 813.0,594.0 L 811.0,594.0 L 810.0,593.0 L 811.0,594.0 L 810.0,595.0 L 808.0,595.0 L 807.0,594.0 L 808.0,595.0 L 807.0,596.0 L 805.0,596.0 L 804.0,595.0 L 805.0,596.0 L 804.0,597.0 L 803.0,597.0 L 802.0,598.0 L 801.0,598.0 L 800.0,599.0 L 798.0,599.0 L 797.0,600.0 L 796.0,600.0 L 795.0,601.0 L 794.0,601.0 L 793.0,602.0 L 792.0,602.0 L 791.0,601.0 L 792.0,602.0 L 791.0,603.0 L 790.0,603.0 L 789.0,604.0 L 788.0,604.0 L 787.0,605.0 L 786.0,605.0 L 784.0,607.0 L 782.0,607.0 L 780.0,609.0 L 779.0,609.0 L 778.0,608.0 L 777.0,608.0 L 778.0,608.0 L 779.0,609.0 L 778.0,610.0 L 777.0,610.0 L 775.0,612.0 L 774.0,612.0 L 773.0,611.0 L 774.0,612.0 L 772.0,614.0 L 771.0,614.0 L 769.0,616.0 L 768.0,616.0 L 767.0,617.0 L 766.0,617.0 L 766.0,618.0 L 765.0,619.0 L 763.0,617.0 L 764.0,618.0 L 764.0,619.0 L 762.0,621.0 L 761.0,620.0 L 762.0,621.0 L 760.0,623.0 L 759.0,622.0 L 759.0,621.0 L 759.0,623.0 L 756.0,626.0 L 755.0,626.0 L 754.0,625.0 L 752.0,627.0 L 753.0,628.0 L 752.0,629.0 L 751.0,629.0 L 747.0,633.0 L 746.0,632.0 L 747.0,633.0 L 743.0,637.0 L 742.0,637.0 L 742.0,638.0 L 732.0,648.0 L 732.0,649.0 L 729.0,652.0 L 728.0,652.0 L 728.0,653.0 L 724.0,657.0 L 723.0,657.0 L 724.0,658.0 L 724.0,659.0 L 722.0,661.0 L 721.0,660.0 L 720.0,661.0 L 720.0,662.0 L 721.0,663.0 L 719.0,665.0 L 718.0,664.0 L 719.0,665.0 L 718.0,666.0 L 718.0,667.0 L 717.0,668.0 L 717.0,669.0 L 716.0,670.0 L 715.0,670.0 L 715.0,672.0 L 713.0,674.0 L 713.0,675.0 L 712.0,676.0 L 712.0,677.0 L 710.0,679.0 L 710.0,680.0 L 709.0,681.0 L 709.0,682.0 L 706.0,685.0 L 706.0,687.0 L 704.0,689.0 L 704.0,691.0 L 702.0,693.0 L 702.0,695.0 L 701.0,696.0 L 701.0,698.0 L 700.0,699.0 L 700.0,700.0 L 699.0,701.0 L 699.0,702.0 L 698.0,703.0 L 698.0,705.0 L 697.0,706.0 L 697.0,707.0 L 696.0,708.0 L 696.0,710.0 L 695.0,711.0 L 695.0,712.0 L 694.0,713.0 L 694.0,716.0 L 693.0,717.0 L 693.0,719.0 L 692.0,720.0 L 692.0,722.0 L 691.0,723.0 L 691.0,725.0 L 690.0,726.0 L 690.0,728.0 L 689.0,729.0 L 689.0,732.0 L 688.0,733.0 L 688.0,738.0 L 687.0,739.0 L 687.0,743.0 L 686.0,744.0 L 686.0,746.0 L 685.0,747.0 L 685.0,753.0 L 684.0,754.0 L 684.0,765.0 L 683.0,766.0 L 683.0,796.0 L 684.0,797.0 L 684.0,806.0 L 685.0,807.0 L 685.0,813.0 L 686.0,814.0 L 686.0,819.0 L 687.0,820.0 L 687.0,823.0 L 688.0,824.0 L 688.0,830.0 L 689.0,831.0 L 689.0,833.0 L 690.0,834.0 L 690.0,837.0 L 691.0,838.0 L 691.0,839.0 L 692.0,840.0 L 692.0,843.0 L 693.0,844.0 L 693.0,846.0 L 694.0,847.0 L 694.0,850.0 L 696.0,852.0 L 696.0,854.0 L 697.0,855.0 L 697.0,857.0 L 698.0,858.0 L 698.0,859.0 L 699.0,860.0 L 699.0,861.0 L 700.0,862.0 L 700.0,863.0 L 701.0,864.0 L 700.0,865.0 L 700.0,866.0 L 701.0,866.0 L 702.0,867.0 L 702.0,868.0 L 703.0,869.0 L 703.0,870.0 L 702.0,871.0 L 703.0,870.0 L 704.0,871.0 L 704.0,873.0 L 706.0,875.0 L 706.0,876.0 L 707.0,877.0 L 707.0,879.0 L 708.0,879.0 L 709.0,880.0 L 709.0,881.0 L 710.0,882.0 L 710.0,884.0 L 713.0,887.0 L 713.0,888.0 L 715.0,890.0 L 715.0,891.0 L 717.0,893.0 L 717.0,894.0 L 716.0,895.0 L 714.0,893.0 L 716.0,895.0 L 717.0,894.0 L 718.0,895.0 L 718.0,896.0 L 720.0,898.0 L 720.0,899.0 L 723.0,902.0 L 723.0,903.0 L 726.0,906.0 L 726.0,907.0 L 731.0,912.0 L 731.0,913.0 L 734.0,916.0 L 733.0,917.0 L 732.0,917.0 L 733.0,917.0 L 734.0,916.0 L 738.0,920.0 L 737.0,921.0 L 739.0,921.0 L 742.0,924.0 L 742.0,926.0 L 743.0,927.0 L 744.0,926.0 L 746.0,928.0 L 745.0,929.0 L 746.0,928.0 L 748.0,930.0 L 747.0,931.0 L 746.0,931.0 L 747.0,931.0 L 748.0,930.0 L 751.0,933.0 L 750.0,934.0 L 751.0,933.0 L 753.0,935.0 L 754.0,935.0 L 757.0,938.0 L 758.0,938.0 L 762.0,942.0 L 761.0,943.0 L 762.0,942.0 L 763.0,942.0 L 764.0,943.0 L 763.0,944.0 L 764.0,943.0 L 766.0,945.0 L 767.0,945.0 L 769.0,947.0 L 770.0,947.0 L 772.0,949.0 L 771.0,950.0 L 772.0,949.0 L 773.0,949.0 L 774.0,950.0 L 775.0,950.0 L 777.0,952.0 L 776.0,953.0 L 777.0,952.0 L 778.0,952.0 L 780.0,954.0 L 781.0,954.0 L 782.0,955.0 L 783.0,955.0 L 784.0,956.0 L 785.0,956.0 L 786.0,957.0 L 787.0,957.0 L 788.0,958.0 L 789.0,958.0 L 790.0,959.0 L 791.0,959.0 L 793.0,961.0 L 792.0,962.0 L 793.0,961.0 L 794.0,961.0 L 795.0,962.0 L 796.0,962.0 L 797.0,963.0 L 799.0,963.0 L 800.0,964.0 L 801.0,964.0 L 802.0,965.0 L 804.0,965.0 L 805.0,966.0 L 806.0,966.0 L 807.0,967.0 L 809.0,967.0 L 810.0,968.0 L 812.0,968.0 L 813.0,969.0 L 815.0,969.0 L 816.0,970.0 L 817.0,970.0 L 818.0,971.0 L 820.0,971.0 L 821.0,972.0 L 824.0,972.0 L 825.0,973.0 L 827.0,973.0 L 828.0,974.0 L 832.0,974.0 L 833.0,975.0 L 836.0,975.0 L 837.0,976.0 L 841.0,976.0 L 842.0,977.0 L 846.0,977.0 L 847.0,978.0 L 850.0,978.0 L 851.0,979.0 L 900.0,979.0 L 901.0,978.0 L 907.0,978.0 L 908.0,977.0 L 911.0,977.0 L 912.0,976.0 L 916.0,976.0 L 917.0,975.0 L 921.0,975.0 L 922.0,974.0 L 925.0,974.0 L 926.0,973.0 L 929.0,973.0 L 930.0,972.0 L 932.0,972.0 L 933.0,971.0 L 936.0,971.0 L 937.0,970.0 L 938.0,970.0 L 939.0,969.0 L 941.0,969.0 L 942.0,968.0 L 944.0,968.0 L 945.0,967.0 L 947.0,967.0 L 948.0,966.0 L 949.0,966.0 L 950.0,965.0 L 951.0,965.0 L 952.0,964.0 L 954.0,964.0 L 955.0,963.0 L 956.0,963.0 L 957.0,962.0 L 958.0,962.0 L 959.0,961.0 L 961.0,961.0 L 963.0,959.0 L 964.0,959.0 L 965.0,958.0 L 966.0,958.0 L 967.0,957.0 L 968.0,958.0 L 969.0,957.0 L 970.0,957.0 L 969.0,956.0 L 970.0,955.0 L 971.0,955.0 L 972.0,954.0 L 973.0,954.0 L 975.0,952.0 L 976.0,953.0 L 980.0,949.0 L 981.0,949.0 L 982.0,948.0 L 983.0,948.0 L 984.0,947.0 L 985.0,948.0 L 984.0,947.0 L 985.0,946.0 L 986.0,946.0 L 989.0,943.0 L 990.0,943.0 L 991.0,944.0 L 990.0,943.0 L 992.0,941.0 L 993.0,941.0 L 994.0,942.0 L 993.0,941.0 L 997.0,937.0 L 998.0,937.0 L 998.0,936.0 L 999.0,935.0 L 1000.0,935.0 L 1002.0,933.0 L 1003.0,934.0 L 1002.0,933.0 L 1003.0,932.0 L 1004.0,932.0 L 1005.0,931.0 L 1005.0,930.0 L 1008.0,927.0 L 1009.0,927.0 L 1010.0,926.0 L 1011.0,927.0 L 1012.0,926.0 L 1011.0,925.0 L 1011.0,924.0 L 1012.0,923.0 L 1013.0,923.0 L 1014.0,924.0 L 1013.0,923.0 L 1016.0,920.0 L 1016.0,919.0 L 1020.0,915.0 L 1021.0,916.0 L 1021.0,917.0 L 1020.0,918.0 L 1021.0,917.0 L 1021.0,916.0 L 1020.0,915.0 L 1024.0,911.0 L 1025.0,911.0 L 1025.0,910.0 L 1026.0,909.0 L 1026.0,908.0 L 1027.0,907.0 L 1028.0,908.0 L 1030.0,906.0 L 1030.0,905.0 L 1029.0,904.0 L 1032.0,901.0 L 1033.0,902.0 L 1032.0,901.0 L 1032.0,900.0 L 1035.0,897.0 L 1035.0,896.0 L 1037.0,894.0 L 1037.0,893.0 L 1040.0,890.0 L 1040.0,889.0 L 1041.0,888.0 L 1041.0,887.0 L 1042.0,886.0 L 1042.0,885.0 L 1043.0,884.0 L 1043.0,883.0 L 1045.0,881.0 L 1045.0,880.0 L 1046.0,879.0 L 1046.0,878.0 L 1048.0,876.0 L 1048.0,875.0 L 1049.0,874.0 L 1049.0,873.0 L 1050.0,872.0 L 1050.0,870.0 L 1051.0,869.0 L 1051.0,868.0 L 1052.0,867.0 L 1052.0,866.0 L 1053.0,865.0 L 1053.0,864.0 L 1054.0,863.0 L 1055.0,864.0 L 1054.0,863.0 L 1054.0,862.0 L 1055.0,861.0 L 1055.0,859.0 L 1056.0,858.0 L 1056.0,857.0 L 1057.0,856.0 L 1057.0,854.0 L 1058.0,853.0 L 1058.0,852.0 L 1059.0,851.0 L 1059.0,848.0 L 1060.0,847.0 L 1060.0,845.0 L 1061.0,844.0 L 1061.0,842.0 L 1062.0,841.0 L 1062.0,839.0 L 1063.0,838.0 L 1063.0,836.0 L 1064.0,835.0 L 1064.0,832.0 L 1065.0,831.0 L 1065.0,827.0 L 1066.0,826.0 L 1066.0,824.0 L 1067.0,823.0 L 1068.0,824.0 L 1067.0,823.0 L 1067.0,818.0 L 1068.0,817.0 L 1068.0,812.0 L 1069.0,811.0 L 1070.0,811.0 L 1070.0,810.0 L 1069.0,809.0 L 1069.0,805.0 L 1070.0,804.0 L 1070.0,757.0 L 1069.0,756.0 L 1069.0,752.0 L 1068.0,751.0 L 1068.0,744.0 L 1067.0,743.0 L 1067.0,740.0 L 1066.0,739.0 L 1066.0,736.0 L 1065.0,735.0 L 1065.0,731.0 L 1064.0,730.0 L 1064.0,728.0 L 1063.0,727.0 L 1063.0,724.0 L 1062.0,723.0 L 1062.0,720.0 L 1061.0,719.0 L 1061.0,718.0 L 1060.0,717.0 L 1060.0,714.0 L 1059.0,713.0 L 1059.0,712.0 L 1058.0,711.0 L 1058.0,710.0 L 1059.0,709.0 L 1058.0,709.0 L 1057.0,708.0 L 1057.0,707.0 L 1056.0,706.0 L 1056.0,704.0 L 1055.0,703.0 L 1055.0,701.0 L 1054.0,700.0 L 1054.0,699.0 L 1055.0,698.0 L 1054.0,699.0 L 1053.0,698.0 L 1053.0,697.0 L 1054.0,696.0 L 1053.0,697.0 L 1052.0,696.0 L 1052.0,695.0 L 1051.0,694.0 L 1051.0,693.0 L 1050.0,692.0 L 1050.0,691.0 L 1049.0,690.0 L 1049.0,689.0 L 1050.0,688.0 L 1049.0,689.0 L 1048.0,688.0 L 1048.0,687.0 L 1047.0,686.0 L 1047.0,685.0 L 1046.0,684.0 L 1046.0,683.0 L 1045.0,682.0 L 1045.0,681.0 L 1044.0,680.0 L 1044.0,679.0 L 1042.0,677.0 L 1042.0,676.0 L 1040.0,674.0 L 1040.0,673.0 L 1041.0,672.0 L 1040.0,673.0 L 1038.0,671.0 L 1038.0,670.0 L 1037.0,669.0 L 1037.0,668.0 L 1038.0,667.0 L 1037.0,666.0 L 1037.0,665.0 L 1037.0,666.0 L 1036.0,667.0 L 1034.0,665.0 L 1034.0,664.0 L 1033.0,663.0 L 1033.0,662.0 L 1029.0,658.0 L 1029.0,657.0 L 1025.0,653.0 L 1025.0,652.0 L 1020.0,647.0 L 1020.0,646.0 L 1019.0,645.0 L 1020.0,644.0 L 1020.0,643.0 L 1019.0,642.0 L 1019.0,643.0 L 1018.0,644.0 L 1014.0,640.0 L 1015.0,639.0 L 1015.0,638.0 L 1015.0,639.0 L 1014.0,640.0 L 1006.0,632.0 L 1007.0,631.0 L 1006.0,630.0 L 1006.0,629.0 L 1004.0,631.0 L 1000.0,627.0 L 999.0,627.0 L 995.0,623.0 L 996.0,622.0 L 995.0,622.0 L 994.0,623.0 L 993.0,622.0 L 993.0,621.0 L 994.0,620.0 L 993.0,621.0 L 992.0,621.0 L 991.0,620.0 L 990.0,620.0 L 988.0,618.0 L 989.0,617.0 L 990.0,617.0 L 989.0,617.0 L 988.0,616.0 L 989.0,617.0 L 988.0,618.0 L 987.0,618.0 L 985.0,616.0 L 984.0,616.0 L 982.0,614.0 L 983.0,613.0 L 982.0,612.0 L 983.0,611.0 L 981.0,613.0 L 980.0,613.0 L 979.0,612.0 L 980.0,611.0 L 979.0,611.0 L 978.0,612.0 L 977.0,611.0 L 977.0,610.0 L 976.0,610.0 L 975.0,609.0 L 974.0,609.0 L 973.0,608.0 L 972.0,608.0 L 970.0,606.0 L 969.0,606.0 L 968.0,605.0 L 966.0,605.0 L 964.0,603.0 L 962.0,603.0 L 961.0,602.0 L 960.0,602.0 L 959.0,601.0 L 960.0,600.0 L 959.0,601.0 L 958.0,600.0 L 956.0,600.0 L 954.0,598.0 L 952.0,598.0 L 951.0,597.0 L 950.0,597.0 L 949.0,596.0 L 949.0,595.0 L 948.0,596.0 L 947.0,596.0 L 946.0,595.0 L 944.0,595.0 L 943.0,594.0 L 941.0,594.0 L 940.0,593.0 L 939.0,593.0 L 938.0,592.0 L 935.0,592.0 L 934.0,591.0 L 932.0,591.0 L 931.0,590.0 L 929.0,590.0 L 928.0,589.0 L 925.0,589.0 L 924.0,588.0 L 922.0,588.0 L 921.0,587.0 L 917.0,587.0 L 916.0,586.0 L 912.0,586.0 L 911.0,585.0 L 905.0,585.0 L 904.0,584.0 L 897.0,584.0 L 896.0,583.0 L 883.0,583.0 L 882.0,582.0 Z" fill="#50bd5e" /><path d="M 320.0,581.0 L 321.0,581.0 Z" fill="#e7e5e6" /><path d="M 323.0,580.0 Z" fill="#efedee" /><path d="M 951.0,579.0 Z" fill="#ededed" /><path d="M 646.0,577.0 Z" fill="#f1eff0" /><path d="M 946.0,576.0 Z" fill="#f0f0f0" /><path d="M 643.0,576.0 Z" fill="#f0eeef" /><path d="M 632.0,572.0 Z" fill="#f0f0f0" /><path d="M 627.0,571.0 Z" fill="#ededed" /><path d="M 624.0,570.0 Z" fill="#f0f0f0" /><path d="M 616.0,568.0 Z" fill="#f0f0f0" /><path d="M 432.0,555.0 L 433.0,555.0 Z" fill="#ededed" /><path d="M 427.0,555.0 Z" fill="#f0f0f0" /><path d="M 443.0,553.0 Z" fill="#f0f0f0" /><path d="M 981.0,536.0 Z" fill="#eeeeee" /><path d="M 503.0,516.0 Z" fill="#efefef" /><path d="M 479.0,516.0 L 480.0,516.0 Z" fill="#efefef" /><path d="M 955.0,512.0 L 955.0,513.0 Z" fill="#ececec" /><path d="M 440.0,510.0 Z" fill="#eeeced" /><path d="M 552.0,507.0 Z" fill="#efefef" /><path d="M 416.0,502.0 Z" fill="#f0f0f0" /><path d="M 568.0,500.0 Z" fill="#efefef" /><path d="M 584.0,494.0 Z" fill="#eeeeee" /><path d="M 396.0,494.0 Z" fill="#eeeeee" /><path d="M 394.0,493.0 Z" fill="#efefef" /><path d="M 596.0,486.0 Z" fill="#eeeeee" /><path d="M 377.0,485.0 Z" fill="#eeeeee" /><path d="M 382.0,484.0 L 383.0,485.0 Z" fill="#ededed" /><path d="M 379.0,484.0 Z" fill="#eeeeee" /><path d="M 606.0,480.0 Z" fill="#f0f0f0" /><path d="M 376.0,480.0 Z" fill="#ededed" /><path d="M 612.0,479.0 Z" fill="#f0f0f0" /><path d="M 371.0,477.0 L 371.0,478.0 Z" fill="#efedee" /><path d="M 368.0,477.0 Z" fill="#eeeced" /><path d="M 615.0,473.0 Z" fill="#f0f0f0" /><path d="M 362.0,470.0 L 362.0,471.0 Z" fill="#ededed" /><path d="M 621.0,468.0 L 623.0,470.0 L 622.0,471.0 L 623.0,470.0 Z" fill="#eaeaea" /><path d="M 630.0,462.0 Z" fill="#e6e6e6" /><path d="M 354.0,462.0 Z" fill="#eeeced" /><path d="M 627.0,461.0 Z" fill="#eeeeee" /><path d="M 635.0,454.0 Z" fill="#efefef" /><path d="M 633.0,454.0 L 631.0,456.0 Z" fill="#efefef" /><path d="M 638.0,453.0 Z" fill="#efefef" /><path d="M 642.0,446.0 L 643.0,447.0 Z" fill="#ececec" /><path d="M 336.0,446.0 Z" fill="#efedee" /><path d="M 643.0,444.0 Z" fill="#ebebeb" /><path d="M 645.0,440.0 Z" fill="#e9e9e9" /><path d="M 0.0,437.0 L 0.0,438.0 Z" fill="#efefef" /><path d="M 650.0,434.0 L 648.0,436.0 L 649.0,436.0 L 649.0,435.0 Z" fill="#eeeeee" /><path d="M 654.0,430.0 Z" fill="#efedee" /><path d="M 1.0,430.0 L 1.0,431.0 Z" fill="#eeeeee" /><path d="M 0.0,428.0 Z" fill="#f0f0f0" /><path d="M 321.0,423.0 Z" fill="#ebebeb" /><path d="M 29.0,421.0 Z" fill="#f1eff0" /><path d="M 313.0,415.0 Z" fill="#f0f0f0" /><path d="M 662.0,414.0 L 662.0,415.0 Z" fill="#efefef" /><path d="M 667.0,404.0 L 667.0,405.0 Z" fill="#ebebeb" /><path d="M 5.0,403.0 Z" fill="#eeeeee" /><path d="M 670.0,399.0 Z" fill="#edebec" /><path d="M 673.0,391.0 Z" fill="#eaeaea" /><path d="M 943.0,383.0 Z" fill="#f0f0f0" /><path d="M 299.0,367.0 Z" fill="#efefef" /><path d="M 938.0,363.0 Z" fill="#f0f0f0" /><path d="M 937.0,360.0 Z" fill="#ebebeb" /><path d="M 17.0,336.0 Z" fill="#efefef" /><path d="M 51.0,333.0 Z" fill="#ebebeb" /><path d="M 57.0,317.0 Z" fill="#e2e2e2" /><path d="M 921.0,314.0 L 921.0,315.0 Z" fill="#f0f0f0" /><path d="M 949.0,312.0 Z" fill="#efefef" /><path d="M 686.0,312.0 L 686.0,313.0 Z" fill="#eaeaea" /><path d="M 949.0,308.0 Z" fill="#f0f0f0" /><path d="M 32.0,308.0 Z" fill="#efedee" /><path d="M 62.0,307.0 L 62.0,308.0 Z" fill="#f0f0f0" /><path d="M 916.0,304.0 Z" fill="#ededed" /><path d="M 32.0,304.0 Z" fill="#f1eff0" /><path d="M 65.0,299.0 L 65.0,300.0 Z" fill="#efefef" /><path d="M 35.0,298.0 Z" fill="#eeeeee" /><path d="M 70.0,288.0 Z" fill="#e6e6e6" /><path d="M 681.0,280.0 Z" fill="#eeeeee" /><path d="M 45.0,277.0 Z" fill="#f0f0f0" /><path d="M 46.0,275.0 Z" fill="#ebebeb" /><path d="M 78.0,274.0 L 78.0,275.0 Z" fill="#ededed" /><path d="M 933.0,272.0 Z" fill="#ededed" /><path d="M 898.0,266.0 L 898.0,267.0 Z" fill="#edebec" /><path d="M 49.0,265.0 L 49.0,266.0 Z" fill="#efefef" /><path d="M 83.0,264.0 L 83.0,265.0 Z" fill="#eeeeee" /><path d="M 304.0,259.0 Z" fill="#f1eff0" /><path d="M 54.0,259.0 L 54.0,260.0 Z" fill="#ebebeb" /><path d="M 893.0,257.0 L 893.0,258.0 Z" fill="#eeeeee" /><path d="M 890.0,256.0 Z" fill="#f0f0f0" /><path d="M 890.0,254.0 Z" fill="#f0f0f0" /><path d="M 922.0,252.0 Z" fill="#f0f0f0" /><path d="M 58.0,251.0 Z" fill="#eaeaea" /><path d="M 59.0,249.0 Z" fill="#f0f0f0" /><path d="M 57.0,249.0 Z" fill="#e6e6e6" /><path d="M 307.0,248.0 Z" fill="#eeeeee" /><path d="M 884.0,243.0 L 885.0,244.0 Z" fill="#efefef" /><path d="M 310.0,243.0 Z" fill="#eeeeee" /><path d="M 918.0,241.0 Z" fill="#e9e9e9" /><path d="M 65.0,239.0 Z" fill="#efefef" /><path d="M 99.0,238.0 Z" fill="#ebebeb" /><path d="M 668.0,237.0 Z" fill="#f0f0f0" /><path d="M 312.0,236.0 Z" fill="#ebebeb" /><path d="M 666.0,235.0 L 666.0,236.0 Z" fill="#ececec" /><path d="M 102.0,232.0 Z" fill="#eeeeee" /><path d="M 65.0,232.0 Z" fill="#eeeeee" /><path d="M 876.0,231.0 Z" fill="#efefef" /><path d="M 911.0,230.0 Z" fill="#ededed" /><path d="M 874.0,230.0 Z" fill="#f0f0f0" /><path d="M 910.0,228.0 Z" fill="#eaeaea" /><path d="M 907.0,228.0 Z" fill="#eaeaea" /><path d="M 662.0,228.0 Z" fill="#f0f0f0" /><path d="M 106.0,227.0 Z" fill="#ebebeb" /><path d="M 662.0,224.0 Z" fill="#e8e8e8" /><path d="M 316.0,224.0 Z" fill="#efefef" /><path d="M 868.0,220.0 Z" fill="#efedee" /><path d="M 322.0,216.0 Z" fill="#eeeeee" /><path d="M 899.0,214.0 Z" fill="#ececec" /><path d="M 654.0,214.0 Z" fill="#e2e0e1" /><path d="M 119.0,214.0 Z" fill="#f0f0f0" /><path d="M 863.0,212.0 L 864.0,213.0 Z" fill="#efeeee" /><path d="M 82.0,211.0 L 83.0,212.0 Z" fill="#efedee" /><path d="M 895.0,210.0 Z" fill="#e5e3e4" /><path d="M 651.0,210.0 Z" fill="#efedee" /><path d="M 83.0,209.0 Z" fill="#efedee" /><path d="M 860.0,208.0 Z" fill="#ececec" /><path d="M 123.0,206.0 Z" fill="#f1eff0" /><path d="M 330.0,205.0 L 330.0,206.0 L 331.0,206.0 Z" fill="#ebebeb" /><path d="M 891.0,204.0 Z" fill="#e9e9e9" /><path d="M 894.0,203.0 Z" fill="#e8e8e8" /><path d="M 123.0,203.0 Z" fill="#f1eff0" /><path d="M 891.0,201.0 Z" fill="#ededed" /><path d="M 646.0,200.0 L 645.0,201.0 L 645.0,202.0 L 645.0,201.0 Z" fill="#ebebeb" /><path d="M 335.0,200.0 Z" fill="#f0f0f0" /><path d="M 89.0,200.0 Z" fill="#efefef" /><path d="M 92.0,199.0 Z" fill="#efefef" /><path d="M 850.0,198.0 Z" fill="#eeeeee" /><path d="M 129.0,198.0 Z" fill="#e6e6e6" /><path d="M 642.0,197.0 Z" fill="#efefef" /><path d="M 338.0,196.0 Z" fill="#f0eeef" /><path d="M 131.0,196.0 Z" fill="#eeeeee" /><path d="M 644.0,195.0 Z" fill="#f0f0f0" /><path d="M 849.0,194.0 L 849.0,195.0 Z" fill="#e9e9e9" /><path d="M 89.0,194.0 Z" fill="#efefef" /><path d="M 94.0,192.0 L 94.0,193.0 Z" fill="#ececec" /><path d="M 842.0,190.0 L 841.0,191.0 Z" fill="#efefef" /><path d="M 134.0,190.0 L 133.0,191.0 Z" fill="#ebebeb" /><path d="M 99.0,190.0 Z" fill="#ececec" /><path d="M 635.0,187.0 Z" fill="#ebebeb" /><path d="M 99.0,187.0 Z" fill="#eaeaea" /><path d="M 345.0,185.0 Z" fill="#e8e8e8" /><path d="M 98.0,185.0 Z" fill="#ececec" /><path d="M 879.0,184.0 Z" fill="#ededed" /><path d="M 632.0,184.0 L 631.0,185.0 L 632.0,184.0 L 633.0,185.0 Z" fill="#e8e8e8" /><path d="M 348.0,184.0 L 347.0,185.0 L 348.0,184.0 L 349.0,184.0 Z" fill="#ededed" /><path d="M 839.0,182.0 L 838.0,183.0 L 839.0,182.0 L 840.0,183.0 Z" fill="#e8e8e8" /><path d="M 142.0,181.0 L 142.0,182.0 Z" fill="#ebebeb" /><path d="M 627.0,178.0 Z" fill="#ededed" /><path d="M 353.0,177.0 Z" fill="#e7e5e6" /><path d="M 108.0,176.0 Z" fill="#efefef" /><path d="M 824.0,175.0 Z" fill="#f0f0f0" /><path d="M 147.0,175.0 Z" fill="#ededed" /><path d="M 619.0,174.0 Z" fill="#efefef" /><path d="M 866.0,172.0 Z" fill="#ededed" /><path d="M 830.0,172.0 L 831.0,173.0 Z" fill="#eeeeee" /><path d="M 113.0,171.0 Z" fill="#f0f0f0" /><path d="M 825.0,170.0 Z" fill="#f0f0f0" /><path d="M 870.0,169.0 Z" fill="#efefef" /><path d="M 826.0,168.0 Z" fill="#ebebeb" /><path d="M 114.0,168.0 L 113.0,169.0 Z" fill="#f0f0f0" /><path d="M 371.0,165.0 Z" fill="#e8e6e7" /><path d="M 861.0,163.0 Z" fill="#ebe9ea" /><path d="M 821.0,163.0 Z" fill="#e2e2e2" /><path d="M 159.0,163.0 L 159.0,164.0 Z" fill="#e8e8e8" /><path d="M 859.0,161.0 Z" fill="#efedee" /><path d="M 606.0,161.0 L 605.0,162.0 Z" fill="#ebe9ea" /><path d="M 603.0,161.0 Z" fill="#ebe9ea" /><path d="M 120.0,161.0 Z" fill="#f0f0f0" /><path d="M 164.0,159.0 Z" fill="#ededed" /><path d="M 854.0,156.0 Z" fill="#ebebeb" /><path d="M 812.0,154.0 Z" fill="#eeeeee" /><path d="M 809.0,154.0 Z" fill="#f0f0f0" /><path d="M 592.0,154.0 Z" fill="#f0f0f0" /><path d="M 851.0,153.0 Z" fill="#e8e8e8" /><path d="M 130.0,153.0 L 129.0,154.0 Z" fill="#eeeeee" /><path d="M 173.0,151.0 Z" fill="#ededed" /><path d="M 175.0,150.0 Z" fill="#eeeeee" /><path d="M 846.0,148.0 L 847.0,149.0 Z" fill="#e9e7e8" /><path d="M 583.0,148.0 Z" fill="#eeeeee" /><path d="M 804.0,147.0 Z" fill="#ebebeb" /><path d="M 399.0,147.0 L 398.0,148.0 L 397.0,148.0 L 398.0,148.0 Z" fill="#eeeeee" /><path d="M 136.0,147.0 L 135.0,148.0 L 134.0,148.0 L 135.0,148.0 Z" fill="#ebebeb" /><path d="M 404.0,145.0 Z" fill="#eeeced" /><path d="M 841.0,144.0 Z" fill="#eceaeb" /><path d="M 575.0,144.0 Z" fill="#f1eff0" /><path d="M 181.0,142.0 Z" fill="#f0f0f0" /><path d="M 793.0,140.0 L 794.0,141.0 L 793.0,142.0 L 794.0,141.0 L 795.0,141.0 L 794.0,141.0 Z" fill="#ebebeb" /><path d="M 143.0,140.0 Z" fill="#e0e0e0" /><path d="M 417.0,139.0 Z" fill="#f0f0f0" /><path d="M 144.0,138.0 Z" fill="#efefef" /><path d="M 426.0,136.0 Z" fill="#ededed" /><path d="M 193.0,134.0 Z" fill="#ebebeb" /><path d="M 785.0,133.0 Z" fill="#ebebeb" /><path d="M 829.0,132.0 Z" fill="#edebec" /><path d="M 537.0,131.0 L 538.0,131.0 Z" fill="#eeeced" /><path d="M 152.0,131.0 Z" fill="#e6e6e6" /><path d="M 447.0,130.0 Z" fill="#ebebeb" /><path d="M 528.0,129.0 Z" fill="#f0eeef" /><path d="M 154.0,129.0 Z" fill="#eaeaea" /><path d="M 824.0,128.0 Z" fill="#eeeced" /><path d="M 481.0,127.0 L 480.0,128.0 L 468.0,128.0 L 467.0,129.0 L 461.0,129.0 L 460.0,130.0 L 455.0,130.0 L 454.0,131.0 L 449.0,131.0 L 448.0,132.0 L 445.0,132.0 L 444.0,133.0 L 441.0,133.0 L 440.0,132.0 L 441.0,133.0 L 440.0,134.0 L 438.0,134.0 L 437.0,135.0 L 434.0,135.0 L 433.0,136.0 L 431.0,136.0 L 430.0,137.0 L 428.0,137.0 L 427.0,138.0 L 425.0,138.0 L 424.0,139.0 L 422.0,139.0 L 421.0,140.0 L 420.0,140.0 L 419.0,141.0 L 417.0,141.0 L 416.0,142.0 L 414.0,142.0 L 413.0,143.0 L 412.0,143.0 L 411.0,144.0 L 410.0,144.0 L 409.0,145.0 L 408.0,145.0 L 407.0,146.0 L 406.0,146.0 L 405.0,147.0 L 404.0,147.0 L 403.0,148.0 L 402.0,148.0 L 401.0,149.0 L 400.0,149.0 L 399.0,150.0 L 398.0,150.0 L 397.0,151.0 L 396.0,151.0 L 395.0,150.0 L 396.0,151.0 L 395.0,152.0 L 394.0,152.0 L 392.0,154.0 L 390.0,154.0 L 389.0,153.0 L 388.0,153.0 L 389.0,153.0 L 390.0,154.0 L 387.0,157.0 L 386.0,157.0 L 385.0,158.0 L 384.0,157.0 L 382.0,159.0 L 382.0,160.0 L 381.0,161.0 L 380.0,161.0 L 378.0,163.0 L 377.0,163.0 L 376.0,162.0 L 377.0,163.0 L 375.0,165.0 L 374.0,165.0 L 371.0,168.0 L 370.0,168.0 L 368.0,170.0 L 367.0,169.0 L 366.0,170.0 L 367.0,171.0 L 365.0,173.0 L 364.0,173.0 L 363.0,172.0 L 364.0,171.0 L 363.0,172.0 L 364.0,173.0 L 362.0,175.0 L 361.0,174.0 L 362.0,175.0 L 359.0,178.0 L 358.0,177.0 L 359.0,178.0 L 357.0,180.0 L 356.0,179.0 L 356.0,178.0 L 354.0,180.0 L 353.0,180.0 L 354.0,180.0 L 355.0,181.0 L 354.0,182.0 L 354.0,183.0 L 351.0,186.0 L 350.0,186.0 L 349.0,187.0 L 349.0,188.0 L 348.0,189.0 L 347.0,188.0 L 348.0,189.0 L 346.0,191.0 L 344.0,189.0 L 344.0,191.0 L 342.0,193.0 L 341.0,192.0 L 340.0,192.0 L 339.0,193.0 L 340.0,192.0 L 341.0,192.0 L 343.0,194.0 L 343.0,195.0 L 340.0,198.0 L 339.0,198.0 L 339.0,199.0 L 338.0,200.0 L 338.0,201.0 L 333.0,206.0 L 333.0,207.0 L 332.0,208.0 L 332.0,209.0 L 331.0,210.0 L 330.0,209.0 L 331.0,210.0 L 329.0,212.0 L 328.0,211.0 L 328.0,212.0 L 329.0,213.0 L 327.0,215.0 L 327.0,216.0 L 326.0,217.0 L 326.0,218.0 L 324.0,220.0 L 323.0,220.0 L 324.0,221.0 L 323.0,222.0 L 323.0,223.0 L 322.0,224.0 L 321.0,223.0 L 322.0,224.0 L 321.0,225.0 L 321.0,226.0 L 320.0,227.0 L 320.0,228.0 L 318.0,230.0 L 318.0,232.0 L 317.0,233.0 L 317.0,234.0 L 316.0,235.0 L 316.0,236.0 L 315.0,237.0 L 314.0,236.0 L 315.0,237.0 L 315.0,238.0 L 314.0,239.0 L 313.0,238.0 L 314.0,239.0 L 314.0,240.0 L 313.0,241.0 L 313.0,242.0 L 312.0,243.0 L 312.0,244.0 L 311.0,245.0 L 311.0,247.0 L 310.0,248.0 L 310.0,249.0 L 309.0,250.0 L 309.0,252.0 L 308.0,253.0 L 308.0,255.0 L 307.0,256.0 L 306.0,255.0 L 307.0,256.0 L 307.0,257.0 L 306.0,258.0 L 306.0,260.0 L 305.0,261.0 L 305.0,264.0 L 304.0,265.0 L 304.0,267.0 L 303.0,268.0 L 303.0,271.0 L 302.0,272.0 L 302.0,275.0 L 301.0,276.0 L 301.0,279.0 L 300.0,280.0 L 300.0,284.0 L 299.0,285.0 L 299.0,289.0 L 298.0,290.0 L 298.0,297.0 L 297.0,298.0 L 297.0,306.0 L 296.0,307.0 L 296.0,333.0 L 297.0,334.0 L 296.0,335.0 L 297.0,336.0 L 297.0,345.0 L 298.0,346.0 L 298.0,351.0 L 299.0,352.0 L 299.0,357.0 L 300.0,358.0 L 300.0,362.0 L 301.0,363.0 L 301.0,366.0 L 302.0,367.0 L 302.0,370.0 L 303.0,371.0 L 303.0,374.0 L 304.0,375.0 L 304.0,377.0 L 305.0,378.0 L 305.0,380.0 L 306.0,381.0 L 306.0,383.0 L 307.0,384.0 L 307.0,386.0 L 308.0,387.0 L 308.0,389.0 L 309.0,390.0 L 309.0,391.0 L 310.0,392.0 L 310.0,394.0 L 311.0,395.0 L 311.0,396.0 L 310.0,397.0 L 310.0,398.0 L 310.0,397.0 L 311.0,396.0 L 312.0,397.0 L 312.0,398.0 L 313.0,399.0 L 313.0,401.0 L 314.0,402.0 L 314.0,403.0 L 313.0,404.0 L 314.0,403.0 L 315.0,404.0 L 315.0,405.0 L 314.0,406.0 L 315.0,405.0 L 316.0,406.0 L 316.0,407.0 L 317.0,408.0 L 317.0,409.0 L 318.0,410.0 L 318.0,411.0 L 317.0,412.0 L 318.0,411.0 L 319.0,412.0 L 319.0,413.0 L 317.0,415.0 L 319.0,413.0 L 320.0,414.0 L 320.0,415.0 L 321.0,416.0 L 321.0,417.0 L 322.0,418.0 L 321.0,419.0 L 321.0,420.0 L 321.0,419.0 L 322.0,418.0 L 323.0,419.0 L 323.0,420.0 L 324.0,421.0 L 323.0,422.0 L 324.0,422.0 L 326.0,424.0 L 326.0,425.0 L 327.0,426.0 L 326.0,427.0 L 326.0,428.0 L 327.0,429.0 L 327.0,430.0 L 326.0,431.0 L 327.0,430.0 L 327.0,429.0 L 328.0,428.0 L 330.0,430.0 L 330.0,431.0 L 329.0,432.0 L 331.0,434.0 L 330.0,435.0 L 330.0,436.0 L 331.0,435.0 L 332.0,436.0 L 333.0,435.0 L 335.0,437.0 L 335.0,438.0 L 339.0,442.0 L 338.0,443.0 L 341.0,446.0 L 342.0,446.0 L 344.0,448.0 L 344.0,449.0 L 345.0,450.0 L 344.0,451.0 L 345.0,452.0 L 345.0,453.0 L 344.0,454.0 L 345.0,453.0 L 346.0,454.0 L 346.0,453.0 L 347.0,452.0 L 349.0,454.0 L 348.0,455.0 L 348.0,456.0 L 348.0,455.0 L 349.0,454.0 L 350.0,455.0 L 350.0,456.0 L 353.0,459.0 L 354.0,459.0 L 358.0,463.0 L 358.0,464.0 L 359.0,464.0 L 363.0,468.0 L 364.0,468.0 L 368.0,472.0 L 369.0,472.0 L 373.0,476.0 L 374.0,476.0 L 376.0,478.0 L 377.0,478.0 L 379.0,480.0 L 378.0,481.0 L 379.0,480.0 L 380.0,480.0 L 381.0,481.0 L 380.0,482.0 L 381.0,481.0 L 382.0,482.0 L 383.0,482.0 L 385.0,484.0 L 386.0,484.0 L 388.0,486.0 L 389.0,486.0 L 390.0,487.0 L 391.0,487.0 L 393.0,489.0 L 393.0,490.0 L 394.0,489.0 L 395.0,490.0 L 396.0,490.0 L 397.0,491.0 L 396.0,492.0 L 397.0,491.0 L 398.0,492.0 L 398.0,493.0 L 399.0,492.0 L 400.0,493.0 L 401.0,493.0 L 402.0,494.0 L 403.0,494.0 L 404.0,495.0 L 403.0,496.0 L 404.0,495.0 L 405.0,495.0 L 407.0,497.0 L 408.0,496.0 L 409.0,497.0 L 410.0,497.0 L 411.0,498.0 L 412.0,498.0 L 413.0,499.0 L 414.0,499.0 L 415.0,500.0 L 417.0,500.0 L 418.0,501.0 L 419.0,501.0 L 420.0,502.0 L 419.0,503.0 L 420.0,502.0 L 422.0,502.0 L 423.0,503.0 L 425.0,503.0 L 426.0,504.0 L 428.0,504.0 L 429.0,505.0 L 431.0,505.0 L 432.0,506.0 L 434.0,506.0 L 435.0,507.0 L 437.0,507.0 L 438.0,508.0 L 441.0,508.0 L 442.0,509.0 L 445.0,509.0 L 446.0,510.0 L 450.0,510.0 L 451.0,511.0 L 455.0,511.0 L 456.0,512.0 L 462.0,512.0 L 463.0,513.0 L 471.0,513.0 L 472.0,514.0 L 509.0,514.0 L 510.0,513.0 L 517.0,513.0 L 518.0,512.0 L 523.0,512.0 L 524.0,511.0 L 529.0,511.0 L 530.0,510.0 L 533.0,510.0 L 534.0,509.0 L 537.0,509.0 L 538.0,508.0 L 541.0,508.0 L 542.0,507.0 L 544.0,507.0 L 545.0,506.0 L 547.0,506.0 L 548.0,505.0 L 551.0,505.0 L 552.0,504.0 L 554.0,504.0 L 555.0,503.0 L 557.0,503.0 L 558.0,502.0 L 559.0,502.0 L 560.0,501.0 L 561.0,501.0 L 562.0,500.0 L 564.0,500.0 L 565.0,499.0 L 566.0,499.0 L 567.0,498.0 L 569.0,498.0 L 570.0,497.0 L 571.0,497.0 L 572.0,496.0 L 573.0,496.0 L 574.0,495.0 L 575.0,495.0 L 576.0,494.0 L 577.0,494.0 L 578.0,495.0 L 577.0,494.0 L 578.0,493.0 L 579.0,493.0 L 580.0,494.0 L 579.0,493.0 L 580.0,492.0 L 581.0,492.0 L 582.0,493.0 L 581.0,492.0 L 582.0,491.0 L 583.0,491.0 L 584.0,492.0 L 583.0,491.0 L 584.0,490.0 L 585.0,490.0 L 586.0,489.0 L 587.0,489.0 L 589.0,487.0 L 590.0,487.0 L 592.0,485.0 L 593.0,485.0 L 595.0,483.0 L 596.0,483.0 L 597.0,482.0 L 598.0,482.0 L 599.0,481.0 L 600.0,481.0 L 600.0,480.0 L 601.0,479.0 L 602.0,479.0 L 603.0,480.0 L 603.0,481.0 L 603.0,480.0 L 602.0,479.0 L 604.0,477.0 L 605.0,477.0 L 606.0,478.0 L 605.0,477.0 L 606.0,476.0 L 607.0,476.0 L 607.0,475.0 L 608.0,474.0 L 609.0,474.0 L 614.0,469.0 L 615.0,469.0 L 618.0,466.0 L 619.0,467.0 L 618.0,466.0 L 620.0,464.0 L 621.0,465.0 L 620.0,464.0 L 623.0,461.0 L 624.0,461.0 L 624.0,460.0 L 625.0,459.0 L 626.0,459.0 L 626.0,458.0 L 627.0,457.0 L 629.0,459.0 L 628.0,458.0 L 628.0,457.0 L 629.0,456.0 L 629.0,455.0 L 633.0,451.0 L 634.0,452.0 L 633.0,451.0 L 636.0,448.0 L 637.0,449.0 L 636.0,448.0 L 637.0,447.0 L 637.0,446.0 L 638.0,445.0 L 639.0,445.0 L 640.0,446.0 L 639.0,445.0 L 639.0,444.0 L 640.0,443.0 L 641.0,444.0 L 640.0,443.0 L 642.0,441.0 L 643.0,441.0 L 642.0,440.0 L 645.0,437.0 L 645.0,436.0 L 648.0,433.0 L 648.0,432.0 L 651.0,429.0 L 651.0,428.0 L 653.0,426.0 L 653.0,425.0 L 654.0,424.0 L 654.0,423.0 L 656.0,421.0 L 657.0,422.0 L 656.0,421.0 L 656.0,420.0 L 657.0,419.0 L 658.0,420.0 L 657.0,419.0 L 657.0,418.0 L 658.0,417.0 L 658.0,416.0 L 660.0,414.0 L 660.0,413.0 L 661.0,412.0 L 661.0,411.0 L 662.0,410.0 L 662.0,409.0 L 663.0,408.0 L 663.0,407.0 L 664.0,406.0 L 664.0,405.0 L 665.0,404.0 L 665.0,403.0 L 666.0,402.0 L 666.0,401.0 L 667.0,400.0 L 667.0,398.0 L 668.0,397.0 L 668.0,396.0 L 669.0,395.0 L 669.0,394.0 L 670.0,393.0 L 670.0,391.0 L 671.0,390.0 L 671.0,389.0 L 672.0,388.0 L 672.0,386.0 L 673.0,385.0 L 673.0,383.0 L 674.0,382.0 L 674.0,379.0 L 675.0,378.0 L 675.0,376.0 L 676.0,375.0 L 676.0,373.0 L 677.0,372.0 L 677.0,369.0 L 678.0,368.0 L 678.0,365.0 L 679.0,364.0 L 679.0,360.0 L 680.0,359.0 L 680.0,355.0 L 681.0,354.0 L 681.0,348.0 L 682.0,347.0 L 682.0,339.0 L 683.0,338.0 L 683.0,303.0 L 682.0,302.0 L 682.0,294.0 L 681.0,293.0 L 681.0,288.0 L 680.0,287.0 L 680.0,283.0 L 679.0,282.0 L 679.0,278.0 L 678.0,277.0 L 678.0,274.0 L 677.0,273.0 L 677.0,270.0 L 676.0,269.0 L 676.0,266.0 L 675.0,265.0 L 675.0,263.0 L 674.0,262.0 L 674.0,260.0 L 673.0,259.0 L 673.0,257.0 L 672.0,256.0 L 673.0,255.0 L 671.0,253.0 L 671.0,252.0 L 670.0,251.0 L 670.0,249.0 L 669.0,248.0 L 669.0,247.0 L 668.0,246.0 L 668.0,245.0 L 669.0,244.0 L 669.0,243.0 L 669.0,244.0 L 668.0,245.0 L 667.0,244.0 L 667.0,242.0 L 668.0,241.0 L 667.0,242.0 L 666.0,241.0 L 666.0,240.0 L 667.0,239.0 L 666.0,240.0 L 665.0,239.0 L 665.0,238.0 L 664.0,237.0 L 664.0,236.0 L 663.0,235.0 L 663.0,234.0 L 662.0,233.0 L 662.0,232.0 L 661.0,231.0 L 661.0,230.0 L 660.0,229.0 L 660.0,228.0 L 659.0,227.0 L 659.0,226.0 L 657.0,224.0 L 657.0,222.0 L 654.0,219.0 L 654.0,218.0 L 653.0,217.0 L 653.0,216.0 L 651.0,214.0 L 651.0,213.0 L 652.0,212.0 L 651.0,213.0 L 649.0,211.0 L 649.0,210.0 L 648.0,209.0 L 649.0,208.0 L 648.0,209.0 L 646.0,207.0 L 646.0,206.0 L 643.0,203.0 L 643.0,202.0 L 641.0,200.0 L 641.0,199.0 L 636.0,194.0 L 638.0,192.0 L 637.0,193.0 L 636.0,192.0 L 635.0,193.0 L 634.0,192.0 L 634.0,191.0 L 635.0,190.0 L 634.0,191.0 L 632.0,189.0 L 633.0,188.0 L 632.0,187.0 L 631.0,188.0 L 628.0,185.0 L 629.0,184.0 L 629.0,183.0 L 629.0,184.0 L 628.0,185.0 L 626.0,183.0 L 627.0,182.0 L 626.0,183.0 L 624.0,181.0 L 625.0,180.0 L 624.0,179.0 L 624.0,178.0 L 624.0,179.0 L 623.0,180.0 L 622.0,179.0 L 621.0,179.0 L 619.0,177.0 L 620.0,176.0 L 619.0,177.0 L 617.0,175.0 L 617.0,174.0 L 616.0,174.0 L 614.0,172.0 L 615.0,171.0 L 614.0,170.0 L 615.0,171.0 L 614.0,172.0 L 613.0,172.0 L 611.0,170.0 L 612.0,169.0 L 611.0,170.0 L 609.0,168.0 L 608.0,168.0 L 605.0,165.0 L 606.0,164.0 L 605.0,165.0 L 604.0,165.0 L 601.0,162.0 L 600.0,162.0 L 598.0,160.0 L 597.0,160.0 L 595.0,158.0 L 596.0,157.0 L 597.0,157.0 L 596.0,156.0 L 595.0,156.0 L 596.0,157.0 L 595.0,158.0 L 594.0,158.0 L 592.0,156.0 L 591.0,156.0 L 590.0,155.0 L 589.0,155.0 L 588.0,154.0 L 589.0,153.0 L 588.0,154.0 L 587.0,153.0 L 586.0,153.0 L 585.0,152.0 L 584.0,152.0 L 583.0,151.0 L 582.0,151.0 L 581.0,150.0 L 580.0,150.0 L 578.0,148.0 L 577.0,148.0 L 576.0,147.0 L 575.0,147.0 L 574.0,146.0 L 572.0,146.0 L 571.0,145.0 L 572.0,144.0 L 571.0,145.0 L 570.0,145.0 L 569.0,144.0 L 568.0,144.0 L 567.0,143.0 L 566.0,143.0 L 565.0,142.0 L 563.0,142.0 L 562.0,141.0 L 561.0,141.0 L 560.0,140.0 L 559.0,140.0 L 558.0,139.0 L 555.0,139.0 L 554.0,138.0 L 552.0,138.0 L 551.0,137.0 L 550.0,137.0 L 549.0,136.0 L 546.0,136.0 L 545.0,135.0 L 543.0,135.0 L 542.0,134.0 L 539.0,134.0 L 538.0,133.0 L 535.0,133.0 L 534.0,132.0 L 531.0,132.0 L 530.0,131.0 L 526.0,131.0 L 525.0,130.0 L 519.0,130.0 L 518.0,129.0 L 513.0,129.0 L 512.0,128.0 L 499.0,128.0 L 498.0,127.0 Z" fill="#222021" /><path d="M 780.0,126.0 Z" fill="#ececec" /><path d="M 777.0,126.0 Z" fill="#efefef" /><path d="M 203.0,125.0 Z" fill="#ebe9ea" /><path d="M 161.0,122.0 L 161.0,123.0 Z" fill="#f0f0f0" /><path d="M 820.0,121.0 Z" fill="#e8e8e8" /><path d="M 817.0,121.0 Z" fill="#eeeeee" /><path d="M 822.0,120.0 L 823.0,121.0 Z" fill="#eaeaea" /><path d="M 769.0,117.0 Z" fill="#ededed" /><path d="M 215.0,117.0 Z" fill="#e6e6e6" /><path d="M 168.0,117.0 Z" fill="#eeeeee" /><path d="M 811.0,116.0 Z" fill="#eceaeb" /><path d="M 765.0,115.0 Z" fill="#ebebeb" /><path d="M 760.0,113.0 Z" fill="#f0f0f0" /><path d="M 802.0,108.0 Z" fill="#efefef" /><path d="M 188.0,100.0 Z" fill="#e6e6e6" /><path d="M 790.0,98.0 Z" fill="#efefef" /><path d="M 736.0,97.0 Z" fill="#e9e9e9" /><path d="M 196.0,94.0 Z" fill="#ececec" /><path d="M 193.0,94.0 Z" fill="#e7e7e7" /><path d="M 728.0,93.0 Z" fill="#ebebeb" /><path d="M 783.0,92.0 Z" fill="#eaeaea" /><path d="M 248.0,92.0 Z" fill="#e6e6e6" /><path d="M 199.0,92.0 Z" fill="#efefef" /><path d="M 728.0,91.0 Z" fill="#e9e9e9" /><path d="M 192.0,91.0 Z" fill="#efefef" /><path d="M 777.0,89.0 L 778.0,89.0 L 779.0,90.0 L 780.0,90.0 L 779.0,90.0 L 778.0,89.0 Z" fill="#ebebeb" /><path d="M 723.0,87.0 Z" fill="#eaeaea" /><path d="M 775.0,86.0 L 774.0,87.0 Z" fill="#ededed" /><path d="M 770.0,84.0 Z" fill="#ededed" /><path d="M 263.0,84.0 Z" fill="#efefef" /><path d="M 265.0,83.0 Z" fill="#f0f0f0" /><path d="M 209.0,83.0 L 208.0,84.0 Z" fill="#edebec" /><path d="M 765.0,81.0 L 766.0,81.0 Z" fill="#eeeced" /><path d="M 704.0,77.0 L 705.0,77.0 Z" fill="#f0eeef" /><path d="M 757.0,76.0 Z" fill="#efefef" /><path d="M 701.0,75.0 Z" fill="#e8e8e8" /><path d="M 290.0,70.0 Z" fill="#efefef" /><path d="M 232.0,70.0 Z" fill="#e7e7e7" /><path d="M 680.0,69.0 Z" fill="#f0f0f0" /><path d="M 744.0,68.0 Z" fill="#f0f0f0" /><path d="M 232.0,68.0 Z" fill="#ececec" /><path d="M 308.0,61.0 Z" fill="#efefef" /><path d="M 729.0,59.0 L 730.0,59.0 Z" fill="#eeeeee" /><path d="M 249.0,59.0 Z" fill="#f0f0f0" /><path d="M 251.0,58.0 Z" fill="#e8e8e8" /><path d="M 317.0,57.0 Z" fill="#e8e8e8" /><path d="M 249.0,57.0 Z" fill="#f0f0f0" /><path d="M 656.0,55.0 Z" fill="#efefef" /><path d="M 647.0,54.0 Z" fill="#efefef" /><path d="M 719.0,52.0 Z" fill="#eceaeb" /><path d="M 647.0,52.0 Z" fill="#ededed" /><path d="M 263.0,50.0 L 264.0,51.0 Z" fill="#efefef" /><path d="M 631.0,46.0 Z" fill="#f1eff0" /><path d="M 624.0,46.0 Z" fill="#eeeced" /><path d="M 348.0,46.0 Z" fill="#f0eeef" /><path d="M 275.0,46.0 L 276.0,46.0 Z" fill="#efefef" /><path d="M 703.0,45.0 Z" fill="#f0f0f0" /><path d="M 351.0,45.0 Z" fill="#e9e7e8" /><path d="M 616.0,43.0 Z" fill="#eaeaea" /><path d="M 360.0,43.0 Z" fill="#efefef" /><path d="M 703.0,42.0 Z" fill="#eaeaea" /><path d="M 687.0,36.0 Z" fill="#eeeeee" /><path d="M 685.0,33.0 Z" fill="#f0f0f0" /><path d="M 672.0,32.0 Z" fill="#f0f0f0" /><path d="M 548.0,30.0 Z" fill="#f1eff0" /><path d="M 419.0,30.0 L 423.0,30.0 Z" fill="#f0eeef" /><path d="M 661.0,28.0 Z" fill="#f0f0f0" /><path d="M 340.0,19.0 L 341.0,19.0 Z" fill="#efefef" /><path d="M 632.0,18.0 Z" fill="#eeeced" /><path d="M 344.0,18.0 Z" fill="#efefef" /><path d="M 362.0,14.0 Z" fill="#ededed" /><path d="M 375.0,10.0 Z" fill="#efefef" /><path d="M 552.0,1.0 Z" fill="#efefef" /><path d="M 428.0,1.0 Z" fill="#f0f0f0" /><path d="M 456.0,0.0 L 455.0,1.0 L 442.0,1.0 L 441.0,2.0 L 433.0,2.0 L 432.0,3.0 L 424.0,3.0 L 423.0,4.0 L 418.0,4.0 L 417.0,5.0 L 412.0,5.0 L 411.0,6.0 L 405.0,6.0 L 404.0,7.0 L 400.0,7.0 L 399.0,8.0 L 395.0,8.0 L 394.0,9.0 L 390.0,9.0 L 389.0,10.0 L 385.0,10.0 L 384.0,11.0 L 381.0,11.0 L 380.0,12.0 L 377.0,12.0 L 376.0,13.0 L 372.0,13.0 L 371.0,14.0 L 368.0,14.0 L 367.0,15.0 L 364.0,15.0 L 363.0,16.0 L 361.0,16.0 L 360.0,17.0 L 357.0,17.0 L 356.0,18.0 L 354.0,18.0 L 353.0,19.0 L 350.0,19.0 L 349.0,20.0 L 347.0,20.0 L 346.0,19.0 L 347.0,20.0 L 346.0,21.0 L 343.0,21.0 L 342.0,22.0 L 340.0,22.0 L 339.0,23.0 L 337.0,23.0 L 336.0,24.0 L 334.0,24.0 L 333.0,25.0 L 331.0,25.0 L 330.0,26.0 L 328.0,26.0 L 327.0,27.0 L 326.0,27.0 L 325.0,28.0 L 323.0,28.0 L 322.0,29.0 L 320.0,29.0 L 319.0,30.0 L 317.0,30.0 L 316.0,31.0 L 315.0,31.0 L 314.0,32.0 L 312.0,32.0 L 311.0,33.0 L 310.0,33.0 L 309.0,34.0 L 307.0,34.0 L 306.0,33.0 L 307.0,32.0 L 308.0,32.0 L 307.0,32.0 L 306.0,33.0 L 305.0,33.0 L 306.0,33.0 L 307.0,34.0 L 306.0,35.0 L 305.0,35.0 L 304.0,36.0 L 302.0,36.0 L 301.0,37.0 L 300.0,36.0 L 299.0,36.0 L 298.0,35.0 L 300.0,37.0 L 299.0,38.0 L 298.0,38.0 L 297.0,37.0 L 298.0,38.0 L 297.0,39.0 L 295.0,39.0 L 294.0,40.0 L 293.0,40.0 L 292.0,41.0 L 291.0,41.0 L 290.0,42.0 L 288.0,42.0 L 287.0,43.0 L 286.0,43.0 L 285.0,44.0 L 284.0,44.0 L 283.0,43.0 L 284.0,44.0 L 283.0,45.0 L 282.0,45.0 L 281.0,46.0 L 280.0,46.0 L 279.0,47.0 L 278.0,47.0 L 277.0,48.0 L 276.0,48.0 L 275.0,49.0 L 274.0,49.0 L 273.0,50.0 L 272.0,50.0 L 271.0,51.0 L 269.0,51.0 L 268.0,52.0 L 267.0,52.0 L 265.0,54.0 L 264.0,53.0 L 264.0,54.0 L 263.0,55.0 L 262.0,55.0 L 261.0,56.0 L 260.0,56.0 L 259.0,55.0 L 260.0,54.0 L 259.0,54.0 L 259.0,55.0 L 260.0,56.0 L 259.0,57.0 L 258.0,57.0 L 257.0,58.0 L 256.0,58.0 L 255.0,59.0 L 254.0,59.0 L 252.0,61.0 L 251.0,61.0 L 250.0,62.0 L 249.0,62.0 L 248.0,63.0 L 247.0,63.0 L 246.0,64.0 L 245.0,64.0 L 243.0,66.0 L 242.0,66.0 L 241.0,65.0 L 242.0,66.0 L 241.0,67.0 L 240.0,67.0 L 239.0,68.0 L 238.0,68.0 L 236.0,70.0 L 235.0,70.0 L 234.0,69.0 L 235.0,68.0 L 234.0,69.0 L 235.0,70.0 L 233.0,72.0 L 232.0,72.0 L 231.0,73.0 L 230.0,73.0 L 229.0,72.0 L 228.0,72.0 L 229.0,72.0 L 230.0,73.0 L 228.0,75.0 L 227.0,75.0 L 226.0,76.0 L 225.0,75.0 L 226.0,76.0 L 225.0,77.0 L 224.0,77.0 L 223.0,78.0 L 222.0,78.0 L 220.0,80.0 L 219.0,80.0 L 217.0,82.0 L 216.0,82.0 L 215.0,81.0 L 216.0,82.0 L 213.0,85.0 L 212.0,85.0 L 211.0,84.0 L 212.0,85.0 L 210.0,87.0 L 209.0,86.0 L 209.0,87.0 L 207.0,89.0 L 206.0,89.0 L 204.0,91.0 L 202.0,89.0 L 201.0,89.0 L 202.0,89.0 L 204.0,91.0 L 203.0,92.0 L 202.0,92.0 L 200.0,94.0 L 199.0,94.0 L 195.0,98.0 L 194.0,98.0 L 193.0,97.0 L 194.0,96.0 L 193.0,97.0 L 192.0,97.0 L 190.0,99.0 L 192.0,97.0 L 193.0,97.0 L 194.0,98.0 L 191.0,101.0 L 190.0,101.0 L 188.0,103.0 L 187.0,102.0 L 188.0,103.0 L 187.0,104.0 L 186.0,104.0 L 184.0,102.0 L 186.0,104.0 L 184.0,106.0 L 183.0,105.0 L 182.0,106.0 L 183.0,107.0 L 182.0,108.0 L 181.0,108.0 L 180.0,107.0 L 177.0,110.0 L 178.0,111.0 L 177.0,112.0 L 175.0,112.0 L 174.0,113.0 L 174.0,114.0 L 169.0,119.0 L 168.0,119.0 L 164.0,123.0 L 163.0,122.0 L 164.0,123.0 L 161.0,126.0 L 160.0,126.0 L 160.0,127.0 L 159.0,128.0 L 158.0,128.0 L 152.0,134.0 L 151.0,134.0 L 149.0,136.0 L 148.0,135.0 L 148.0,134.0 L 148.0,135.0 L 149.0,136.0 L 149.0,137.0 L 144.0,142.0 L 143.0,142.0 L 142.0,143.0 L 142.0,144.0 L 140.0,146.0 L 139.0,145.0 L 139.0,143.0 L 140.0,142.0 L 139.0,143.0 L 139.0,145.0 L 140.0,146.0 L 136.0,150.0 L 135.0,150.0 L 134.0,151.0 L 134.0,152.0 L 128.0,158.0 L 128.0,159.0 L 127.0,160.0 L 126.0,160.0 L 126.0,161.0 L 118.0,169.0 L 118.0,170.0 L 117.0,171.0 L 116.0,170.0 L 117.0,171.0 L 114.0,174.0 L 113.0,174.0 L 112.0,173.0 L 114.0,175.0 L 110.0,179.0 L 109.0,178.0 L 108.0,179.0 L 109.0,180.0 L 109.0,181.0 L 107.0,183.0 L 106.0,182.0 L 107.0,183.0 L 104.0,186.0 L 103.0,185.0 L 102.0,186.0 L 102.0,187.0 L 103.0,188.0 L 101.0,190.0 L 101.0,191.0 L 98.0,194.0 L 97.0,193.0 L 95.0,195.0 L 96.0,195.0 L 97.0,196.0 L 95.0,198.0 L 95.0,199.0 L 92.0,202.0 L 91.0,201.0 L 91.0,202.0 L 90.0,203.0 L 91.0,204.0 L 89.0,206.0 L 88.0,206.0 L 89.0,207.0 L 87.0,209.0 L 87.0,210.0 L 85.0,212.0 L 85.0,213.0 L 83.0,215.0 L 82.0,214.0 L 81.0,215.0 L 82.0,214.0 L 83.0,215.0 L 83.0,216.0 L 81.0,218.0 L 81.0,219.0 L 78.0,222.0 L 78.0,223.0 L 77.0,224.0 L 77.0,225.0 L 76.0,226.0 L 75.0,225.0 L 76.0,226.0 L 75.0,227.0 L 75.0,228.0 L 74.0,229.0 L 73.0,228.0 L 72.0,229.0 L 73.0,230.0 L 73.0,231.0 L 72.0,232.0 L 72.0,233.0 L 70.0,235.0 L 70.0,236.0 L 69.0,237.0 L 67.0,235.0 L 69.0,237.0 L 69.0,238.0 L 68.0,239.0 L 67.0,238.0 L 67.0,241.0 L 66.0,242.0 L 65.0,241.0 L 66.0,242.0 L 66.0,243.0 L 65.0,244.0 L 65.0,245.0 L 63.0,247.0 L 63.0,248.0 L 62.0,249.0 L 62.0,250.0 L 61.0,251.0 L 61.0,252.0 L 59.0,254.0 L 59.0,255.0 L 58.0,256.0 L 57.0,256.0 L 56.0,257.0 L 57.0,258.0 L 57.0,259.0 L 56.0,260.0 L 56.0,261.0 L 55.0,262.0 L 55.0,263.0 L 53.0,265.0 L 53.0,267.0 L 51.0,269.0 L 51.0,271.0 L 50.0,272.0 L 50.0,273.0 L 49.0,274.0 L 49.0,275.0 L 47.0,277.0 L 47.0,279.0 L 46.0,280.0 L 46.0,281.0 L 45.0,282.0 L 45.0,283.0 L 44.0,284.0 L 44.0,285.0 L 43.0,286.0 L 43.0,287.0 L 42.0,288.0 L 41.0,287.0 L 42.0,288.0 L 42.0,289.0 L 41.0,290.0 L 41.0,292.0 L 40.0,293.0 L 40.0,294.0 L 39.0,295.0 L 38.0,295.0 L 39.0,296.0 L 38.0,297.0 L 38.0,299.0 L 37.0,300.0 L 37.0,301.0 L 36.0,302.0 L 36.0,304.0 L 35.0,305.0 L 35.0,306.0 L 34.0,307.0 L 34.0,309.0 L 33.0,310.0 L 33.0,311.0 L 32.0,312.0 L 32.0,314.0 L 31.0,315.0 L 31.0,316.0 L 30.0,317.0 L 30.0,319.0 L 29.0,320.0 L 29.0,322.0 L 28.0,323.0 L 27.0,322.0 L 27.0,321.0 L 27.0,322.0 L 28.0,323.0 L 28.0,325.0 L 27.0,326.0 L 27.0,328.0 L 26.0,329.0 L 25.0,328.0 L 26.0,329.0 L 26.0,330.0 L 25.0,331.0 L 25.0,333.0 L 24.0,334.0 L 24.0,337.0 L 23.0,338.0 L 23.0,340.0 L 22.0,341.0 L 22.0,343.0 L 21.0,344.0 L 21.0,346.0 L 20.0,347.0 L 20.0,349.0 L 19.0,350.0 L 19.0,353.0 L 18.0,354.0 L 18.0,356.0 L 17.0,357.0 L 17.0,360.0 L 16.0,361.0 L 16.0,364.0 L 15.0,365.0 L 15.0,367.0 L 14.0,368.0 L 14.0,371.0 L 13.0,372.0 L 13.0,375.0 L 12.0,376.0 L 12.0,380.0 L 11.0,381.0 L 11.0,384.0 L 10.0,385.0 L 10.0,389.0 L 9.0,390.0 L 9.0,394.0 L 8.0,395.0 L 8.0,399.0 L 7.0,400.0 L 7.0,405.0 L 6.0,406.0 L 6.0,411.0 L 5.0,412.0 L 5.0,418.0 L 4.0,419.0 L 4.0,424.0 L 3.0,425.0 L 3.0,432.0 L 2.0,433.0 L 2.0,442.0 L 1.0,443.0 L 1.0,455.0 L 0.0,456.0 L 0.0,523.0 L 1.0,524.0 L 1.0,536.0 L 2.0,537.0 L 2.0,546.0 L 3.0,547.0 L 3.0,553.0 L 4.0,554.0 L 4.0,561.0 L 5.0,562.0 L 5.0,567.0 L 6.0,568.0 L 6.0,573.0 L 7.0,574.0 L 7.0,578.0 L 8.0,579.0 L 8.0,583.0 L 9.0,584.0 L 9.0,589.0 L 10.0,590.0 L 10.0,594.0 L 11.0,595.0 L 11.0,598.0 L 12.0,599.0 L 12.0,602.0 L 13.0,603.0 L 13.0,606.0 L 14.0,607.0 L 14.0,611.0 L 15.0,612.0 L 15.0,615.0 L 16.0,616.0 L 16.0,618.0 L 17.0,619.0 L 17.0,622.0 L 18.0,623.0 L 18.0,626.0 L 19.0,627.0 L 19.0,629.0 L 20.0,630.0 L 20.0,632.0 L 21.0,633.0 L 21.0,635.0 L 22.0,636.0 L 22.0,638.0 L 23.0,639.0 L 23.0,642.0 L 24.0,643.0 L 24.0,645.0 L 25.0,646.0 L 25.0,647.0 L 26.0,648.0 L 26.0,650.0 L 27.0,651.0 L 27.0,653.0 L 28.0,654.0 L 28.0,656.0 L 29.0,657.0 L 29.0,659.0 L 30.0,660.0 L 30.0,662.0 L 29.0,663.0 L 30.0,664.0 L 31.0,664.0 L 32.0,665.0 L 32.0,667.0 L 33.0,668.0 L 33.0,669.0 L 34.0,670.0 L 34.0,672.0 L 35.0,673.0 L 35.0,674.0 L 36.0,675.0 L 36.0,677.0 L 37.0,678.0 L 37.0,679.0 L 36.0,680.0 L 37.0,679.0 L 38.0,680.0 L 38.0,681.0 L 39.0,682.0 L 39.0,684.0 L 38.0,685.0 L 38.0,686.0 L 38.0,685.0 L 39.0,684.0 L 40.0,685.0 L 40.0,686.0 L 41.0,687.0 L 41.0,689.0 L 42.0,690.0 L 42.0,691.0 L 43.0,692.0 L 43.0,693.0 L 44.0,694.0 L 44.0,695.0 L 45.0,696.0 L 45.0,697.0 L 46.0,698.0 L 46.0,699.0 L 45.0,700.0 L 46.0,699.0 L 47.0,700.0 L 47.0,701.0 L 48.0,702.0 L 48.0,703.0 L 49.0,704.0 L 49.0,705.0 L 50.0,706.0 L 50.0,707.0 L 49.0,708.0 L 49.0,709.0 L 49.0,708.0 L 50.0,707.0 L 51.0,708.0 L 51.0,710.0 L 50.0,711.0 L 51.0,710.0 L 53.0,712.0 L 53.0,713.0 L 54.0,714.0 L 54.0,715.0 L 55.0,716.0 L 54.0,717.0 L 54.0,718.0 L 55.0,717.0 L 56.0,718.0 L 56.0,719.0 L 57.0,720.0 L 57.0,721.0 L 58.0,722.0 L 58.0,723.0 L 59.0,724.0 L 59.0,725.0 L 61.0,727.0 L 61.0,729.0 L 63.0,731.0 L 63.0,732.0 L 65.0,734.0 L 65.0,735.0 L 64.0,736.0 L 65.0,735.0 L 66.0,736.0 L 66.0,737.0 L 67.0,738.0 L 66.0,739.0 L 67.0,738.0 L 68.0,739.0 L 68.0,740.0 L 67.0,741.0 L 67.0,742.0 L 68.0,743.0 L 69.0,742.0 L 70.0,743.0 L 70.0,744.0 L 72.0,746.0 L 72.0,747.0 L 73.0,748.0 L 73.0,749.0 L 75.0,751.0 L 75.0,752.0 L 77.0,754.0 L 76.0,755.0 L 77.0,755.0 L 78.0,756.0 L 76.0,758.0 L 78.0,756.0 L 79.0,757.0 L 79.0,758.0 L 81.0,760.0 L 81.0,761.0 L 82.0,762.0 L 82.0,763.0 L 84.0,765.0 L 83.0,766.0 L 84.0,765.0 L 85.0,766.0 L 85.0,767.0 L 86.0,768.0 L 86.0,769.0 L 89.0,772.0 L 89.0,773.0 L 92.0,776.0 L 92.0,777.0 L 95.0,780.0 L 95.0,781.0 L 94.0,782.0 L 93.0,781.0 L 94.0,782.0 L 95.0,781.0 L 97.0,783.0 L 97.0,785.0 L 98.0,785.0 L 100.0,787.0 L 99.0,788.0 L 99.0,789.0 L 99.0,788.0 L 100.0,787.0 L 101.0,788.0 L 101.0,789.0 L 104.0,792.0 L 104.0,793.0 L 105.0,794.0 L 104.0,795.0 L 106.0,797.0 L 107.0,796.0 L 109.0,798.0 L 109.0,799.0 L 110.0,800.0 L 110.0,801.0 L 111.0,801.0 L 113.0,803.0 L 113.0,804.0 L 112.0,805.0 L 113.0,804.0 L 117.0,808.0 L 117.0,809.0 L 116.0,810.0 L 117.0,809.0 L 121.0,813.0 L 120.0,814.0 L 121.0,815.0 L 122.0,814.0 L 125.0,817.0 L 125.0,818.0 L 124.0,819.0 L 126.0,821.0 L 127.0,820.0 L 130.0,823.0 L 128.0,825.0 L 129.0,826.0 L 131.0,824.0 L 135.0,828.0 L 134.0,829.0 L 134.0,830.0 L 134.0,829.0 L 135.0,828.0 L 137.0,830.0 L 136.0,831.0 L 137.0,830.0 L 138.0,831.0 L 138.0,832.0 L 136.0,834.0 L 138.0,832.0 L 139.0,832.0 L 145.0,838.0 L 145.0,839.0 L 146.0,839.0 L 147.0,840.0 L 146.0,841.0 L 148.0,841.0 L 154.0,847.0 L 152.0,849.0 L 154.0,851.0 L 153.0,850.0 L 155.0,848.0 L 160.0,853.0 L 158.0,855.0 L 160.0,853.0 L 161.0,854.0 L 162.0,854.0 L 164.0,856.0 L 163.0,857.0 L 164.0,856.0 L 167.0,859.0 L 166.0,860.0 L 167.0,859.0 L 168.0,860.0 L 169.0,860.0 L 170.0,861.0 L 169.0,862.0 L 170.0,861.0 L 173.0,864.0 L 172.0,865.0 L 171.0,865.0 L 170.0,864.0 L 171.0,865.0 L 172.0,865.0 L 173.0,864.0 L 174.0,865.0 L 174.0,867.0 L 175.0,868.0 L 174.0,867.0 L 174.0,866.0 L 175.0,865.0 L 183.0,873.0 L 184.0,873.0 L 186.0,875.0 L 187.0,875.0 L 190.0,878.0 L 191.0,878.0 L 194.0,881.0 L 195.0,881.0 L 197.0,883.0 L 196.0,884.0 L 197.0,883.0 L 198.0,883.0 L 199.0,884.0 L 198.0,885.0 L 199.0,884.0 L 202.0,887.0 L 203.0,887.0 L 206.0,890.0 L 207.0,890.0 L 209.0,892.0 L 210.0,892.0 L 211.0,893.0 L 210.0,894.0 L 211.0,895.0 L 212.0,894.0 L 213.0,894.0 L 214.0,895.0 L 214.0,896.0 L 216.0,896.0 L 218.0,898.0 L 218.0,899.0 L 217.0,900.0 L 219.0,898.0 L 222.0,901.0 L 223.0,901.0 L 224.0,902.0 L 223.0,903.0 L 224.0,902.0 L 225.0,902.0 L 227.0,904.0 L 228.0,904.0 L 230.0,906.0 L 231.0,906.0 L 232.0,907.0 L 233.0,907.0 L 235.0,909.0 L 234.0,910.0 L 233.0,910.0 L 232.0,909.0 L 233.0,910.0 L 234.0,910.0 L 235.0,909.0 L 236.0,909.0 L 238.0,911.0 L 240.0,911.0 L 242.0,913.0 L 243.0,913.0 L 245.0,915.0 L 246.0,915.0 L 247.0,916.0 L 248.0,916.0 L 249.0,917.0 L 250.0,917.0 L 252.0,919.0 L 253.0,919.0 L 255.0,921.0 L 257.0,921.0 L 258.0,922.0 L 259.0,922.0 L 260.0,923.0 L 261.0,923.0 L 262.0,924.0 L 261.0,925.0 L 262.0,924.0 L 263.0,924.0 L 264.0,925.0 L 263.0,926.0 L 264.0,925.0 L 265.0,925.0 L 266.0,926.0 L 267.0,926.0 L 268.0,927.0 L 269.0,927.0 L 270.0,928.0 L 271.0,928.0 L 272.0,929.0 L 273.0,929.0 L 274.0,930.0 L 275.0,930.0 L 276.0,931.0 L 277.0,931.0 L 278.0,932.0 L 279.0,932.0 L 280.0,933.0 L 281.0,933.0 L 282.0,934.0 L 283.0,934.0 L 284.0,935.0 L 285.0,935.0 L 287.0,937.0 L 288.0,936.0 L 289.0,937.0 L 290.0,937.0 L 291.0,938.0 L 292.0,938.0 L 293.0,939.0 L 294.0,939.0 L 295.0,940.0 L 297.0,940.0 L 298.0,941.0 L 299.0,941.0 L 300.0,942.0 L 301.0,942.0 L 302.0,943.0 L 304.0,943.0 L 305.0,944.0 L 304.0,945.0 L 305.0,944.0 L 306.0,944.0 L 307.0,945.0 L 309.0,945.0 L 310.0,946.0 L 311.0,946.0 L 312.0,947.0 L 311.0,948.0 L 312.0,947.0 L 314.0,947.0 L 315.0,948.0 L 317.0,948.0 L 318.0,949.0 L 319.0,949.0 L 320.0,950.0 L 322.0,950.0 L 323.0,951.0 L 322.0,952.0 L 323.0,951.0 L 325.0,951.0 L 326.0,952.0 L 327.0,952.0 L 328.0,953.0 L 330.0,953.0 L 331.0,954.0 L 333.0,954.0 L 334.0,955.0 L 337.0,955.0 L 338.0,956.0 L 339.0,956.0 L 340.0,957.0 L 343.0,957.0 L 344.0,958.0 L 346.0,958.0 L 347.0,959.0 L 349.0,959.0 L 350.0,960.0 L 353.0,960.0 L 354.0,961.0 L 357.0,961.0 L 358.0,962.0 L 360.0,962.0 L 361.0,963.0 L 364.0,963.0 L 365.0,964.0 L 368.0,964.0 L 369.0,965.0 L 372.0,965.0 L 373.0,966.0 L 375.0,966.0 L 376.0,967.0 L 380.0,967.0 L 381.0,968.0 L 385.0,968.0 L 386.0,969.0 L 389.0,969.0 L 390.0,970.0 L 394.0,970.0 L 395.0,971.0 L 400.0,971.0 L 401.0,972.0 L 405.0,972.0 L 406.0,973.0 L 411.0,973.0 L 412.0,974.0 L 418.0,974.0 L 419.0,975.0 L 425.0,975.0 L 426.0,976.0 L 433.0,976.0 L 434.0,977.0 L 442.0,977.0 L 443.0,978.0 L 455.0,978.0 L 456.0,979.0 L 523.0,979.0 L 524.0,978.0 L 535.0,978.0 L 536.0,977.0 L 546.0,977.0 L 547.0,976.0 L 554.0,976.0 L 555.0,975.0 L 561.0,975.0 L 562.0,974.0 L 567.0,974.0 L 568.0,973.0 L 574.0,973.0 L 575.0,972.0 L 579.0,972.0 L 580.0,971.0 L 585.0,971.0 L 586.0,970.0 L 589.0,970.0 L 590.0,969.0 L 594.0,969.0 L 595.0,968.0 L 598.0,968.0 L 599.0,967.0 L 603.0,967.0 L 604.0,966.0 L 607.0,966.0 L 608.0,965.0 L 611.0,965.0 L 612.0,964.0 L 615.0,964.0 L 616.0,963.0 L 618.0,963.0 L 619.0,962.0 L 622.0,962.0 L 623.0,961.0 L 626.0,961.0 L 627.0,960.0 L 629.0,960.0 L 630.0,959.0 L 633.0,959.0 L 634.0,958.0 L 636.0,958.0 L 637.0,957.0 L 639.0,957.0 L 640.0,956.0 L 642.0,956.0 L 643.0,955.0 L 645.0,955.0 L 646.0,954.0 L 648.0,954.0 L 649.0,953.0 L 651.0,953.0 L 652.0,952.0 L 653.0,952.0 L 654.0,951.0 L 657.0,951.0 L 658.0,950.0 L 659.0,950.0 L 660.0,949.0 L 662.0,949.0 L 663.0,948.0 L 665.0,948.0 L 666.0,949.0 L 667.0,949.0 L 666.0,949.0 L 665.0,948.0 L 666.0,947.0 L 667.0,947.0 L 668.0,946.0 L 670.0,946.0 L 671.0,945.0 L 673.0,945.0 L 674.0,944.0 L 675.0,944.0 L 676.0,943.0 L 677.0,943.0 L 678.0,942.0 L 679.0,942.0 L 680.0,941.0 L 684.0,941.0 L 684.0,940.0 L 685.0,939.0 L 686.0,939.0 L 687.0,938.0 L 689.0,938.0 L 690.0,937.0 L 691.0,937.0 L 692.0,936.0 L 693.0,936.0 L 694.0,935.0 L 695.0,935.0 L 696.0,934.0 L 697.0,934.0 L 698.0,933.0 L 699.0,933.0 L 700.0,934.0 L 699.0,933.0 L 700.0,932.0 L 701.0,932.0 L 702.0,933.0 L 702.0,932.0 L 703.0,931.0 L 704.0,931.0 L 705.0,930.0 L 706.0,930.0 L 707.0,931.0 L 708.0,931.0 L 709.0,932.0 L 708.0,931.0 L 707.0,931.0 L 706.0,930.0 L 707.0,929.0 L 708.0,929.0 L 709.0,928.0 L 710.0,928.0 L 711.0,927.0 L 712.0,927.0 L 713.0,926.0 L 714.0,926.0 L 715.0,927.0 L 716.0,926.0 L 717.0,927.0 L 716.0,926.0 L 716.0,925.0 L 717.0,924.0 L 718.0,925.0 L 716.0,923.0 L 717.0,922.0 L 715.0,920.0 L 714.0,920.0 L 713.0,921.0 L 711.0,919.0 L 711.0,918.0 L 710.0,917.0 L 711.0,916.0 L 710.0,917.0 L 708.0,915.0 L 708.0,914.0 L 706.0,912.0 L 706.0,911.0 L 704.0,909.0 L 705.0,908.0 L 705.0,907.0 L 703.0,905.0 L 702.0,906.0 L 701.0,905.0 L 701.0,904.0 L 700.0,903.0 L 700.0,902.0 L 697.0,899.0 L 697.0,898.0 L 695.0,896.0 L 695.0,895.0 L 694.0,894.0 L 694.0,893.0 L 695.0,892.0 L 694.0,893.0 L 692.0,891.0 L 692.0,890.0 L 691.0,889.0 L 692.0,888.0 L 691.0,888.0 L 690.0,887.0 L 691.0,886.0 L 691.0,885.0 L 690.0,886.0 L 689.0,885.0 L 689.0,884.0 L 690.0,883.0 L 689.0,884.0 L 688.0,883.0 L 688.0,882.0 L 687.0,881.0 L 687.0,880.0 L 686.0,879.0 L 686.0,878.0 L 685.0,877.0 L 685.0,876.0 L 686.0,875.0 L 685.0,876.0 L 684.0,875.0 L 684.0,874.0 L 685.0,873.0 L 684.0,874.0 L 683.0,873.0 L 683.0,872.0 L 682.0,871.0 L 682.0,869.0 L 681.0,868.0 L 681.0,867.0 L 680.0,866.0 L 680.0,865.0 L 681.0,864.0 L 680.0,865.0 L 679.0,864.0 L 679.0,862.0 L 678.0,861.0 L 678.0,860.0 L 677.0,859.0 L 677.0,857.0 L 676.0,856.0 L 676.0,854.0 L 675.0,853.0 L 675.0,851.0 L 674.0,850.0 L 674.0,847.0 L 673.0,846.0 L 673.0,845.0 L 672.0,844.0 L 672.0,841.0 L 671.0,840.0 L 671.0,838.0 L 670.0,837.0 L 670.0,834.0 L 669.0,833.0 L 669.0,829.0 L 668.0,828.0 L 668.0,824.0 L 667.0,823.0 L 667.0,819.0 L 666.0,818.0 L 666.0,813.0 L 665.0,812.0 L 665.0,804.0 L 664.0,803.0 L 664.0,792.0 L 663.0,791.0 L 663.0,772.0 L 664.0,771.0 L 664.0,759.0 L 665.0,758.0 L 665.0,751.0 L 666.0,750.0 L 666.0,744.0 L 667.0,743.0 L 667.0,739.0 L 668.0,738.0 L 668.0,734.0 L 669.0,733.0 L 669.0,730.0 L 670.0,729.0 L 670.0,725.0 L 671.0,724.0 L 671.0,722.0 L 672.0,721.0 L 672.0,718.0 L 673.0,717.0 L 673.0,715.0 L 674.0,714.0 L 674.0,712.0 L 675.0,711.0 L 675.0,709.0 L 676.0,708.0 L 677.0,709.0 L 676.0,708.0 L 676.0,706.0 L 677.0,705.0 L 677.0,703.0 L 678.0,702.0 L 678.0,701.0 L 679.0,700.0 L 679.0,699.0 L 680.0,698.0 L 680.0,696.0 L 681.0,695.0 L 681.0,693.0 L 683.0,691.0 L 683.0,690.0 L 684.0,689.0 L 684.0,687.0 L 685.0,686.0 L 685.0,685.0 L 686.0,684.0 L 686.0,683.0 L 687.0,682.0 L 687.0,681.0 L 688.0,680.0 L 688.0,679.0 L 689.0,678.0 L 690.0,679.0 L 689.0,678.0 L 689.0,677.0 L 690.0,676.0 L 691.0,677.0 L 690.0,676.0 L 690.0,675.0 L 691.0,674.0 L 691.0,673.0 L 692.0,672.0 L 692.0,671.0 L 694.0,669.0 L 695.0,670.0 L 694.0,669.0 L 694.0,668.0 L 696.0,666.0 L 696.0,665.0 L 698.0,663.0 L 699.0,664.0 L 698.0,663.0 L 699.0,662.0 L 699.0,660.0 L 701.0,658.0 L 702.0,659.0 L 701.0,658.0 L 701.0,657.0 L 703.0,655.0 L 703.0,654.0 L 705.0,652.0 L 706.0,653.0 L 705.0,652.0 L 705.0,651.0 L 708.0,648.0 L 708.0,647.0 L 710.0,645.0 L 711.0,646.0 L 712.0,646.0 L 712.0,645.0 L 711.0,644.0 L 714.0,641.0 L 714.0,640.0 L 715.0,639.0 L 716.0,640.0 L 717.0,639.0 L 716.0,638.0 L 718.0,636.0 L 719.0,637.0 L 718.0,636.0 L 718.0,635.0 L 719.0,634.0 L 720.0,634.0 L 721.0,633.0 L 721.0,632.0 L 722.0,631.0 L 723.0,632.0 L 722.0,631.0 L 723.0,630.0 L 725.0,630.0 L 726.0,631.0 L 725.0,630.0 L 726.0,629.0 L 725.0,628.0 L 731.0,622.0 L 732.0,623.0 L 731.0,622.0 L 733.0,620.0 L 734.0,621.0 L 735.0,620.0 L 734.0,619.0 L 735.0,618.0 L 732.0,618.0 L 731.0,617.0 L 732.0,616.0 L 731.0,617.0 L 728.0,614.0 L 727.0,615.0 L 726.0,614.0 L 725.0,614.0 L 723.0,612.0 L 724.0,611.0 L 723.0,611.0 L 722.0,610.0 L 721.0,610.0 L 720.0,609.0 L 719.0,610.0 L 718.0,610.0 L 717.0,609.0 L 716.0,609.0 L 715.0,608.0 L 714.0,608.0 L 713.0,607.0 L 712.0,607.0 L 711.0,606.0 L 710.0,606.0 L 709.0,605.0 L 708.0,605.0 L 707.0,604.0 L 706.0,604.0 L 705.0,603.0 L 704.0,603.0 L 703.0,602.0 L 702.0,602.0 L 701.0,601.0 L 702.0,600.0 L 701.0,601.0 L 700.0,601.0 L 699.0,600.0 L 700.0,599.0 L 699.0,600.0 L 698.0,600.0 L 697.0,599.0 L 696.0,599.0 L 695.0,598.0 L 694.0,598.0 L 693.0,597.0 L 691.0,597.0 L 689.0,595.0 L 687.0,595.0 L 686.0,594.0 L 684.0,594.0 L 683.0,593.0 L 684.0,592.0 L 683.0,593.0 L 682.0,593.0 L 681.0,592.0 L 680.0,592.0 L 679.0,591.0 L 677.0,591.0 L 676.0,590.0 L 675.0,590.0 L 674.0,589.0 L 672.0,589.0 L 671.0,588.0 L 670.0,588.0 L 669.0,587.0 L 668.0,587.0 L 667.0,586.0 L 665.0,586.0 L 664.0,585.0 L 662.0,585.0 L 661.0,584.0 L 659.0,584.0 L 658.0,583.0 L 657.0,583.0 L 656.0,582.0 L 654.0,582.0 L 653.0,581.0 L 651.0,581.0 L 650.0,580.0 L 648.0,580.0 L 647.0,579.0 L 645.0,579.0 L 644.0,578.0 L 642.0,578.0 L 641.0,577.0 L 639.0,577.0 L 638.0,576.0 L 636.0,576.0 L 635.0,575.0 L 633.0,575.0 L 632.0,574.0 L 629.0,574.0 L 628.0,573.0 L 626.0,573.0 L 625.0,572.0 L 623.0,572.0 L 622.0,571.0 L 619.0,571.0 L 618.0,570.0 L 615.0,570.0 L 614.0,569.0 L 611.0,569.0 L 610.0,568.0 L 607.0,568.0 L 606.0,567.0 L 603.0,567.0 L 602.0,566.0 L 599.0,566.0 L 598.0,565.0 L 595.0,565.0 L 594.0,564.0 L 595.0,563.0 L 596.0,563.0 L 595.0,563.0 L 594.0,564.0 L 590.0,564.0 L 589.0,563.0 L 584.0,563.0 L 583.0,562.0 L 579.0,562.0 L 578.0,561.0 L 573.0,561.0 L 572.0,560.0 L 567.0,560.0 L 566.0,559.0 L 560.0,559.0 L 559.0,558.0 L 552.0,558.0 L 551.0,557.0 L 544.0,557.0 L 543.0,556.0 L 535.0,556.0 L 534.0,555.0 L 522.0,555.0 L 521.0,554.0 L 520.0,555.0 L 519.0,554.0 L 459.0,554.0 L 458.0,555.0 L 446.0,555.0 L 445.0,556.0 L 436.0,556.0 L 435.0,557.0 L 428.0,557.0 L 427.0,558.0 L 420.0,558.0 L 419.0,559.0 L 413.0,559.0 L 412.0,560.0 L 407.0,560.0 L 406.0,561.0 L 401.0,561.0 L 400.0,562.0 L 397.0,562.0 L 396.0,563.0 L 392.0,563.0 L 391.0,564.0 L 386.0,564.0 L 385.0,563.0 L 384.0,563.0 L 385.0,563.0 L 386.0,564.0 L 385.0,565.0 L 381.0,565.0 L 380.0,566.0 L 378.0,566.0 L 377.0,567.0 L 374.0,567.0 L 373.0,568.0 L 369.0,568.0 L 368.0,569.0 L 366.0,569.0 L 365.0,570.0 L 362.0,570.0 L 361.0,571.0 L 358.0,571.0 L 357.0,572.0 L 355.0,572.0 L 354.0,571.0 L 355.0,572.0 L 354.0,573.0 L 352.0,573.0 L 351.0,574.0 L 348.0,574.0 L 347.0,575.0 L 345.0,575.0 L 344.0,576.0 L 341.0,576.0 L 340.0,577.0 L 338.0,577.0 L 337.0,578.0 L 335.0,578.0 L 334.0,579.0 L 332.0,579.0 L 331.0,580.0 L 329.0,580.0 L 328.0,581.0 L 326.0,581.0 L 325.0,582.0 L 324.0,582.0 L 323.0,583.0 L 321.0,583.0 L 320.0,584.0 L 318.0,584.0 L 317.0,585.0 L 315.0,585.0 L 314.0,586.0 L 313.0,586.0 L 312.0,585.0 L 311.0,585.0 L 312.0,585.0 L 313.0,586.0 L 312.0,587.0 L 310.0,587.0 L 309.0,586.0 L 310.0,587.0 L 309.0,588.0 L 308.0,588.0 L 307.0,587.0 L 308.0,588.0 L 307.0,589.0 L 305.0,589.0 L 304.0,590.0 L 302.0,590.0 L 301.0,591.0 L 300.0,591.0 L 299.0,592.0 L 298.0,592.0 L 297.0,593.0 L 296.0,593.0 L 295.0,594.0 L 294.0,594.0 L 293.0,595.0 L 291.0,595.0 L 290.0,596.0 L 289.0,596.0 L 288.0,597.0 L 286.0,597.0 L 285.0,598.0 L 284.0,598.0 L 283.0,599.0 L 282.0,599.0 L 281.0,600.0 L 280.0,600.0 L 279.0,601.0 L 278.0,601.0 L 277.0,602.0 L 276.0,602.0 L 275.0,601.0 L 276.0,602.0 L 275.0,603.0 L 274.0,603.0 L 273.0,602.0 L 274.0,603.0 L 273.0,604.0 L 272.0,604.0 L 271.0,605.0 L 270.0,605.0 L 269.0,606.0 L 268.0,606.0 L 267.0,607.0 L 266.0,607.0 L 265.0,608.0 L 264.0,608.0 L 263.0,609.0 L 262.0,609.0 L 261.0,610.0 L 260.0,610.0 L 259.0,611.0 L 258.0,611.0 L 256.0,613.0 L 255.0,613.0 L 254.0,614.0 L 253.0,614.0 L 252.0,615.0 L 251.0,615.0 L 250.0,616.0 L 249.0,616.0 L 248.0,617.0 L 247.0,616.0 L 248.0,617.0 L 247.0,618.0 L 246.0,618.0 L 245.0,619.0 L 244.0,619.0 L 243.0,620.0 L 242.0,619.0 L 243.0,620.0 L 242.0,621.0 L 241.0,621.0 L 240.0,622.0 L 239.0,622.0 L 238.0,623.0 L 237.0,623.0 L 235.0,625.0 L 234.0,625.0 L 232.0,627.0 L 230.0,627.0 L 227.0,630.0 L 226.0,630.0 L 225.0,631.0 L 224.0,630.0 L 225.0,631.0 L 224.0,632.0 L 222.0,632.0 L 222.0,633.0 L 221.0,634.0 L 220.0,634.0 L 219.0,633.0 L 220.0,634.0 L 218.0,636.0 L 217.0,636.0 L 216.0,637.0 L 215.0,637.0 L 212.0,640.0 L 211.0,640.0 L 209.0,642.0 L 208.0,642.0 L 207.0,641.0 L 209.0,639.0 L 205.0,643.0 L 206.0,644.0 L 205.0,645.0 L 204.0,645.0 L 202.0,643.0 L 203.0,642.0 L 202.0,643.0 L 201.0,643.0 L 200.0,644.0 L 201.0,643.0 L 202.0,643.0 L 203.0,644.0 L 201.0,646.0 L 201.0,647.0 L 198.0,650.0 L 197.0,650.0 L 196.0,649.0 L 197.0,650.0 L 194.0,653.0 L 193.0,653.0 L 192.0,654.0 L 191.0,654.0 L 191.0,655.0 L 190.0,656.0 L 189.0,656.0 L 188.0,655.0 L 188.0,654.0 L 189.0,653.0 L 188.0,654.0 L 188.0,655.0 L 187.0,656.0 L 186.0,656.0 L 183.0,659.0 L 184.0,660.0 L 181.0,663.0 L 180.0,663.0 L 177.0,666.0 L 176.0,665.0 L 175.0,665.0 L 176.0,665.0 L 177.0,666.0 L 173.0,670.0 L 172.0,670.0 L 171.0,669.0 L 170.0,670.0 L 169.0,669.0 L 171.0,671.0 L 169.0,673.0 L 168.0,673.0 L 167.0,672.0 L 168.0,673.0 L 167.0,674.0 L 166.0,674.0 L 165.0,673.0 L 166.0,674.0 L 166.0,675.0 L 164.0,677.0 L 163.0,676.0 L 163.0,675.0 L 163.0,676.0 L 164.0,677.0 L 162.0,679.0 L 161.0,678.0 L 160.0,678.0 L 161.0,678.0 L 162.0,679.0 L 157.0,684.0 L 156.0,684.0 L 155.0,685.0 L 154.0,684.0 L 155.0,685.0 L 154.0,686.0 L 153.0,686.0 L 153.0,687.0 L 151.0,689.0 L 150.0,688.0 L 151.0,689.0 L 149.0,691.0 L 148.0,690.0 L 148.0,689.0 L 148.0,690.0 L 146.0,692.0 L 147.0,693.0 L 142.0,698.0 L 141.0,697.0 L 140.0,698.0 L 138.0,696.0 L 139.0,697.0 L 136.0,700.0 L 138.0,698.0 L 139.0,699.0 L 139.0,701.0 L 133.0,707.0 L 131.0,705.0 L 132.0,704.0 L 131.0,705.0 L 130.0,705.0 L 129.0,704.0 L 130.0,705.0 L 131.0,705.0 L 133.0,707.0 L 132.0,708.0 L 132.0,709.0 L 131.0,710.0 L 128.0,710.0 L 129.0,711.0 L 129.0,712.0 L 126.0,715.0 L 125.0,714.0 L 124.0,715.0 L 125.0,716.0 L 121.0,720.0 L 120.0,719.0 L 121.0,720.0 L 120.0,721.0 L 120.0,722.0 L 118.0,724.0 L 117.0,723.0 L 116.0,724.0 L 117.0,725.0 L 115.0,727.0 L 115.0,728.0 L 111.0,732.0 L 110.0,731.0 L 109.0,732.0 L 108.0,731.0 L 110.0,733.0 L 109.0,734.0 L 109.0,735.0 L 105.0,739.0 L 104.0,738.0 L 105.0,739.0 L 105.0,740.0 L 102.0,743.0 L 102.0,744.0 L 101.0,745.0 L 100.0,744.0 L 101.0,745.0 L 100.0,746.0 L 99.0,746.0 L 97.0,744.0 L 97.0,743.0 L 95.0,741.0 L 95.0,740.0 L 94.0,739.0 L 94.0,738.0 L 95.0,737.0 L 94.0,738.0 L 92.0,736.0 L 92.0,735.0 L 90.0,733.0 L 90.0,732.0 L 91.0,731.0 L 90.0,732.0 L 89.0,731.0 L 89.0,730.0 L 90.0,729.0 L 90.0,728.0 L 90.0,729.0 L 89.0,730.0 L 87.0,728.0 L 87.0,727.0 L 86.0,726.0 L 86.0,725.0 L 87.0,724.0 L 86.0,725.0 L 85.0,724.0 L 85.0,723.0 L 86.0,722.0 L 85.0,723.0 L 83.0,721.0 L 83.0,720.0 L 82.0,719.0 L 82.0,718.0 L 83.0,717.0 L 82.0,718.0 L 81.0,717.0 L 81.0,716.0 L 79.0,714.0 L 79.0,713.0 L 78.0,712.0 L 78.0,711.0 L 79.0,710.0 L 79.0,709.0 L 78.0,708.0 L 78.0,707.0 L 76.0,705.0 L 75.0,705.0 L 74.0,704.0 L 74.0,703.0 L 73.0,702.0 L 73.0,701.0 L 74.0,700.0 L 74.0,699.0 L 74.0,700.0 L 73.0,701.0 L 71.0,699.0 L 71.0,698.0 L 70.0,697.0 L 70.0,696.0 L 69.0,695.0 L 69.0,693.0 L 68.0,692.0 L 68.0,691.0 L 67.0,690.0 L 67.0,689.0 L 66.0,688.0 L 66.0,687.0 L 65.0,686.0 L 65.0,685.0 L 64.0,684.0 L 64.0,683.0 L 63.0,682.0 L 63.0,681.0 L 64.0,680.0 L 63.0,681.0 L 62.0,680.0 L 62.0,678.0 L 61.0,677.0 L 61.0,676.0 L 60.0,675.0 L 60.0,673.0 L 59.0,672.0 L 59.0,671.0 L 58.0,670.0 L 58.0,669.0 L 57.0,668.0 L 57.0,666.0 L 56.0,665.0 L 56.0,664.0 L 55.0,663.0 L 55.0,662.0 L 54.0,661.0 L 54.0,659.0 L 53.0,658.0 L 53.0,656.0 L 52.0,655.0 L 52.0,654.0 L 51.0,653.0 L 51.0,651.0 L 50.0,650.0 L 50.0,648.0 L 49.0,647.0 L 49.0,646.0 L 48.0,645.0 L 48.0,643.0 L 47.0,642.0 L 47.0,640.0 L 46.0,639.0 L 46.0,637.0 L 45.0,636.0 L 45.0,633.0 L 44.0,632.0 L 44.0,630.0 L 43.0,629.0 L 43.0,627.0 L 42.0,626.0 L 42.0,624.0 L 41.0,623.0 L 41.0,621.0 L 40.0,620.0 L 40.0,617.0 L 39.0,616.0 L 39.0,614.0 L 38.0,613.0 L 38.0,610.0 L 37.0,609.0 L 37.0,606.0 L 36.0,605.0 L 36.0,602.0 L 35.0,601.0 L 35.0,598.0 L 34.0,597.0 L 34.0,594.0 L 33.0,593.0 L 33.0,589.0 L 32.0,588.0 L 32.0,584.0 L 31.0,583.0 L 31.0,579.0 L 30.0,578.0 L 30.0,573.0 L 29.0,572.0 L 29.0,568.0 L 28.0,567.0 L 28.0,562.0 L 27.0,561.0 L 27.0,555.0 L 26.0,554.0 L 26.0,548.0 L 25.0,547.0 L 25.0,538.0 L 24.0,537.0 L 24.0,528.0 L 23.0,527.0 L 23.0,513.0 L 22.0,512.0 L 23.0,511.0 L 23.0,510.0 L 22.0,509.0 L 22.0,470.0 L 23.0,469.0 L 23.0,468.0 L 22.0,467.0 L 23.0,466.0 L 23.0,453.0 L 24.0,452.0 L 24.0,442.0 L 25.0,441.0 L 25.0,433.0 L 26.0,432.0 L 26.0,426.0 L 27.0,425.0 L 27.0,418.0 L 28.0,417.0 L 28.0,412.0 L 29.0,411.0 L 29.0,407.0 L 30.0,406.0 L 30.0,402.0 L 31.0,401.0 L 31.0,396.0 L 32.0,395.0 L 32.0,391.0 L 33.0,390.0 L 33.0,387.0 L 34.0,386.0 L 34.0,383.0 L 35.0,382.0 L 35.0,378.0 L 36.0,377.0 L 36.0,374.0 L 37.0,373.0 L 37.0,370.0 L 38.0,369.0 L 38.0,367.0 L 39.0,366.0 L 39.0,363.0 L 40.0,362.0 L 40.0,359.0 L 41.0,358.0 L 41.0,356.0 L 42.0,355.0 L 42.0,353.0 L 43.0,352.0 L 43.0,350.0 L 44.0,349.0 L 44.0,347.0 L 45.0,346.0 L 45.0,344.0 L 46.0,343.0 L 46.0,341.0 L 47.0,340.0 L 47.0,338.0 L 49.0,336.0 L 48.0,335.0 L 49.0,334.0 L 49.0,332.0 L 50.0,331.0 L 50.0,330.0 L 51.0,329.0 L 51.0,327.0 L 52.0,326.0 L 52.0,324.0 L 53.0,323.0 L 53.0,322.0 L 54.0,321.0 L 54.0,319.0 L 55.0,318.0 L 56.0,319.0 L 55.0,318.0 L 55.0,316.0 L 56.0,315.0 L 56.0,314.0 L 57.0,313.0 L 57.0,311.0 L 58.0,310.0 L 58.0,309.0 L 59.0,308.0 L 59.0,307.0 L 60.0,306.0 L 60.0,304.0 L 61.0,303.0 L 62.0,304.0 L 61.0,303.0 L 61.0,302.0 L 62.0,301.0 L 62.0,300.0 L 63.0,299.0 L 63.0,298.0 L 64.0,297.0 L 64.0,295.0 L 65.0,294.0 L 65.0,293.0 L 66.0,292.0 L 66.0,291.0 L 67.0,290.0 L 68.0,291.0 L 67.0,290.0 L 68.0,289.0 L 68.0,287.0 L 69.0,286.0 L 69.0,285.0 L 70.0,284.0 L 70.0,283.0 L 71.0,282.0 L 71.0,281.0 L 72.0,280.0 L 73.0,280.0 L 72.0,279.0 L 73.0,278.0 L 74.0,278.0 L 73.0,277.0 L 74.0,276.0 L 74.0,275.0 L 75.0,274.0 L 76.0,275.0 L 75.0,274.0 L 75.0,273.0 L 76.0,272.0 L 76.0,271.0 L 77.0,270.0 L 78.0,271.0 L 79.0,270.0 L 78.0,271.0 L 77.0,270.0 L 77.0,269.0 L 79.0,267.0 L 79.0,266.0 L 81.0,264.0 L 81.0,262.0 L 82.0,261.0 L 83.0,262.0 L 82.0,261.0 L 82.0,260.0 L 83.0,259.0 L 83.0,258.0 L 84.0,257.0 L 85.0,257.0 L 85.0,255.0 L 86.0,254.0 L 87.0,255.0 L 88.0,254.0 L 89.0,255.0 L 88.0,254.0 L 87.0,255.0 L 86.0,254.0 L 86.0,253.0 L 88.0,251.0 L 89.0,252.0 L 88.0,251.0 L 88.0,250.0 L 89.0,249.0 L 89.0,248.0 L 91.0,246.0 L 91.0,245.0 L 93.0,243.0 L 93.0,242.0 L 94.0,241.0 L 94.0,240.0 L 96.0,238.0 L 97.0,239.0 L 96.0,238.0 L 96.0,237.0 L 98.0,235.0 L 99.0,235.0 L 98.0,234.0 L 100.0,232.0 L 100.0,231.0 L 102.0,229.0 L 102.0,228.0 L 105.0,225.0 L 105.0,224.0 L 107.0,222.0 L 107.0,221.0 L 109.0,219.0 L 110.0,220.0 L 109.0,219.0 L 109.0,218.0 L 111.0,216.0 L 111.0,215.0 L 113.0,213.0 L 114.0,214.0 L 113.0,213.0 L 115.0,211.0 L 115.0,210.0 L 117.0,208.0 L 117.0,207.0 L 120.0,204.0 L 121.0,205.0 L 120.0,204.0 L 120.0,203.0 L 124.0,199.0 L 124.0,198.0 L 127.0,195.0 L 128.0,196.0 L 127.0,195.0 L 130.0,192.0 L 131.0,193.0 L 130.0,192.0 L 130.0,191.0 L 134.0,187.0 L 134.0,186.0 L 135.0,185.0 L 136.0,185.0 L 137.0,184.0 L 137.0,183.0 L 140.0,180.0 L 140.0,179.0 L 141.0,178.0 L 142.0,178.0 L 142.0,177.0 L 148.0,171.0 L 149.0,172.0 L 149.0,173.0 L 150.0,173.0 L 148.0,171.0 L 149.0,170.0 L 149.0,169.0 L 150.0,168.0 L 151.0,168.0 L 151.0,167.0 L 152.0,166.0 L 153.0,167.0 L 152.0,166.0 L 155.0,163.0 L 156.0,164.0 L 155.0,163.0 L 160.0,158.0 L 161.0,159.0 L 160.0,158.0 L 166.0,152.0 L 167.0,153.0 L 166.0,152.0 L 167.0,151.0 L 168.0,151.0 L 168.0,150.0 L 169.0,149.0 L 170.0,149.0 L 171.0,148.0 L 172.0,149.0 L 173.0,149.0 L 175.0,147.0 L 173.0,149.0 L 172.0,149.0 L 171.0,148.0 L 181.0,138.0 L 182.0,139.0 L 186.0,135.0 L 186.0,134.0 L 187.0,133.0 L 188.0,133.0 L 191.0,130.0 L 192.0,130.0 L 193.0,131.0 L 190.0,134.0 L 193.0,131.0 L 194.0,131.0 L 195.0,132.0 L 194.0,131.0 L 193.0,131.0 L 192.0,130.0 L 194.0,128.0 L 195.0,129.0 L 196.0,128.0 L 197.0,128.0 L 196.0,128.0 L 195.0,127.0 L 198.0,124.0 L 199.0,124.0 L 200.0,125.0 L 201.0,124.0 L 200.0,123.0 L 202.0,121.0 L 203.0,122.0 L 203.0,123.0 L 204.0,123.0 L 202.0,121.0 L 203.0,120.0 L 204.0,120.0 L 205.0,121.0 L 204.0,120.0 L 207.0,117.0 L 208.0,117.0 L 211.0,114.0 L 212.0,114.0 L 213.0,115.0 L 212.0,114.0 L 215.0,111.0 L 216.0,111.0 L 218.0,109.0 L 219.0,109.0 L 220.0,110.0 L 219.0,109.0 L 222.0,106.0 L 223.0,106.0 L 224.0,105.0 L 225.0,105.0 L 228.0,102.0 L 229.0,102.0 L 230.0,103.0 L 231.0,103.0 L 230.0,103.0 L 229.0,102.0 L 231.0,100.0 L 232.0,100.0 L 234.0,98.0 L 235.0,99.0 L 234.0,98.0 L 235.0,97.0 L 236.0,97.0 L 237.0,98.0 L 236.0,97.0 L 237.0,96.0 L 238.0,96.0 L 239.0,97.0 L 238.0,96.0 L 240.0,94.0 L 241.0,94.0 L 242.0,93.0 L 243.0,93.0 L 245.0,91.0 L 246.0,91.0 L 248.0,89.0 L 249.0,89.0 L 250.0,88.0 L 251.0,88.0 L 252.0,89.0 L 251.0,88.0 L 253.0,86.0 L 254.0,86.0 L 255.0,87.0 L 254.0,88.0 L 255.0,87.0 L 254.0,86.0 L 255.0,85.0 L 256.0,85.0 L 257.0,84.0 L 258.0,84.0 L 260.0,82.0 L 261.0,82.0 L 262.0,81.0 L 264.0,81.0 L 266.0,79.0 L 267.0,79.0 L 269.0,77.0 L 270.0,77.0 L 271.0,78.0 L 270.0,79.0 L 271.0,78.0 L 270.0,77.0 L 271.0,76.0 L 272.0,76.0 L 273.0,75.0 L 274.0,75.0 L 275.0,74.0 L 276.0,74.0 L 277.0,73.0 L 278.0,73.0 L 279.0,72.0 L 280.0,73.0 L 280.0,72.0 L 281.0,71.0 L 282.0,71.0 L 283.0,70.0 L 284.0,70.0 L 285.0,69.0 L 286.0,69.0 L 287.0,70.0 L 288.0,70.0 L 287.0,70.0 L 286.0,69.0 L 287.0,68.0 L 288.0,68.0 L 289.0,67.0 L 290.0,67.0 L 291.0,66.0 L 292.0,66.0 L 293.0,65.0 L 294.0,65.0 L 295.0,64.0 L 296.0,65.0 L 298.0,63.0 L 299.0,63.0 L 300.0,62.0 L 301.0,62.0 L 302.0,61.0 L 303.0,61.0 L 304.0,60.0 L 306.0,60.0 L 307.0,59.0 L 308.0,59.0 L 309.0,58.0 L 310.0,58.0 L 311.0,57.0 L 313.0,57.0 L 314.0,56.0 L 315.0,56.0 L 316.0,55.0 L 318.0,55.0 L 319.0,56.0 L 318.0,55.0 L 319.0,54.0 L 321.0,54.0 L 322.0,53.0 L 323.0,53.0 L 324.0,52.0 L 326.0,52.0 L 327.0,51.0 L 329.0,51.0 L 330.0,50.0 L 331.0,50.0 L 332.0,49.0 L 334.0,49.0 L 335.0,48.0 L 337.0,48.0 L 338.0,47.0 L 340.0,47.0 L 341.0,46.0 L 342.0,46.0 L 343.0,45.0 L 346.0,45.0 L 347.0,44.0 L 349.0,44.0 L 350.0,43.0 L 353.0,43.0 L 354.0,42.0 L 355.0,42.0 L 356.0,41.0 L 359.0,41.0 L 360.0,40.0 L 362.0,40.0 L 363.0,39.0 L 366.0,39.0 L 367.0,38.0 L 369.0,38.0 L 370.0,37.0 L 373.0,37.0 L 374.0,36.0 L 377.0,36.0 L 378.0,35.0 L 382.0,35.0 L 383.0,34.0 L 386.0,34.0 L 387.0,33.0 L 390.0,33.0 L 391.0,32.0 L 395.0,32.0 L 396.0,31.0 L 400.0,31.0 L 401.0,30.0 L 405.0,30.0 L 406.0,29.0 L 411.0,29.0 L 412.0,28.0 L 415.0,28.0 L 416.0,29.0 L 418.0,27.0 L 425.0,27.0 L 426.0,26.0 L 431.0,26.0 L 432.0,25.0 L 441.0,25.0 L 442.0,24.0 L 451.0,24.0 L 452.0,23.0 L 464.0,23.0 L 465.0,22.0 L 466.0,22.0 L 467.0,23.0 L 468.0,22.0 L 511.0,22.0 L 512.0,23.0 L 513.0,22.0 L 514.0,23.0 L 528.0,23.0 L 529.0,24.0 L 538.0,24.0 L 539.0,25.0 L 547.0,25.0 L 548.0,26.0 L 555.0,26.0 L 556.0,27.0 L 561.0,27.0 L 562.0,28.0 L 567.0,28.0 L 568.0,29.0 L 567.0,30.0 L 568.0,29.0 L 573.0,29.0 L 574.0,30.0 L 578.0,30.0 L 579.0,31.0 L 583.0,31.0 L 584.0,32.0 L 588.0,32.0 L 589.0,33.0 L 592.0,33.0 L 593.0,34.0 L 597.0,34.0 L 598.0,35.0 L 601.0,35.0 L 602.0,36.0 L 605.0,36.0 L 606.0,37.0 L 609.0,37.0 L 610.0,38.0 L 613.0,38.0 L 614.0,39.0 L 616.0,39.0 L 617.0,40.0 L 620.0,40.0 L 621.0,41.0 L 623.0,41.0 L 624.0,42.0 L 626.0,42.0 L 627.0,43.0 L 629.0,43.0 L 630.0,44.0 L 632.0,44.0 L 633.0,45.0 L 636.0,45.0 L 637.0,46.0 L 639.0,46.0 L 640.0,47.0 L 642.0,47.0 L 643.0,48.0 L 645.0,48.0 L 646.0,49.0 L 648.0,49.0 L 649.0,50.0 L 650.0,50.0 L 651.0,51.0 L 650.0,52.0 L 651.0,51.0 L 652.0,51.0 L 653.0,52.0 L 656.0,52.0 L 657.0,53.0 L 658.0,53.0 L 659.0,54.0 L 661.0,54.0 L 662.0,55.0 L 663.0,55.0 L 664.0,56.0 L 666.0,56.0 L 667.0,57.0 L 668.0,57.0 L 669.0,58.0 L 671.0,58.0 L 672.0,59.0 L 671.0,60.0 L 672.0,61.0 L 673.0,61.0 L 674.0,60.0 L 675.0,60.0 L 676.0,61.0 L 677.0,61.0 L 678.0,62.0 L 680.0,62.0 L 681.0,63.0 L 682.0,63.0 L 683.0,64.0 L 684.0,64.0 L 685.0,65.0 L 686.0,65.0 L 687.0,66.0 L 688.0,66.0 L 689.0,67.0 L 690.0,67.0 L 691.0,68.0 L 691.0,69.0 L 692.0,70.0 L 693.0,70.0 L 694.0,69.0 L 695.0,69.0 L 696.0,70.0 L 697.0,70.0 L 698.0,71.0 L 699.0,71.0 L 700.0,72.0 L 699.0,73.0 L 698.0,73.0 L 699.0,73.0 L 700.0,72.0 L 701.0,72.0 L 703.0,74.0 L 704.0,74.0 L 705.0,75.0 L 706.0,75.0 L 707.0,76.0 L 708.0,76.0 L 709.0,77.0 L 710.0,77.0 L 711.0,78.0 L 711.0,79.0 L 712.0,78.0 L 713.0,79.0 L 714.0,79.0 L 716.0,81.0 L 715.0,82.0 L 716.0,81.0 L 717.0,81.0 L 718.0,82.0 L 719.0,82.0 L 720.0,83.0 L 721.0,83.0 L 722.0,84.0 L 723.0,84.0 L 725.0,86.0 L 726.0,86.0 L 727.0,87.0 L 728.0,87.0 L 730.0,89.0 L 731.0,89.0 L 732.0,90.0 L 730.0,92.0 L 732.0,90.0 L 733.0,90.0 L 736.0,93.0 L 737.0,93.0 L 738.0,94.0 L 739.0,94.0 L 740.0,95.0 L 739.0,96.0 L 740.0,95.0 L 741.0,95.0 L 744.0,98.0 L 745.0,98.0 L 746.0,99.0 L 746.0,100.0 L 747.0,101.0 L 748.0,100.0 L 749.0,101.0 L 750.0,101.0 L 752.0,103.0 L 753.0,103.0 L 754.0,104.0 L 753.0,105.0 L 754.0,106.0 L 755.0,105.0 L 756.0,105.0 L 757.0,106.0 L 756.0,107.0 L 757.0,106.0 L 758.0,107.0 L 758.0,108.0 L 759.0,107.0 L 762.0,110.0 L 763.0,110.0 L 765.0,112.0 L 764.0,113.0 L 763.0,113.0 L 764.0,113.0 L 765.0,112.0 L 766.0,113.0 L 767.0,113.0 L 769.0,115.0 L 770.0,115.0 L 772.0,117.0 L 771.0,118.0 L 772.0,117.0 L 774.0,119.0 L 775.0,119.0 L 778.0,122.0 L 777.0,123.0 L 776.0,123.0 L 777.0,123.0 L 778.0,122.0 L 779.0,122.0 L 782.0,125.0 L 782.0,126.0 L 783.0,126.0 L 784.0,127.0 L 785.0,127.0 L 786.0,128.0 L 785.0,129.0 L 786.0,130.0 L 785.0,131.0 L 786.0,130.0 L 788.0,132.0 L 789.0,131.0 L 790.0,131.0 L 791.0,132.0 L 790.0,133.0 L 791.0,134.0 L 792.0,133.0 L 795.0,136.0 L 794.0,137.0 L 796.0,139.0 L 797.0,139.0 L 799.0,141.0 L 798.0,142.0 L 797.0,142.0 L 798.0,142.0 L 799.0,141.0 L 800.0,142.0 L 801.0,141.0 L 807.0,147.0 L 808.0,147.0 L 810.0,149.0 L 809.0,150.0 L 810.0,149.0 L 816.0,155.0 L 816.0,156.0 L 817.0,156.0 L 818.0,157.0 L 817.0,158.0 L 818.0,157.0 L 820.0,159.0 L 819.0,160.0 L 820.0,159.0 L 829.0,168.0 L 829.0,169.0 L 830.0,169.0 L 833.0,172.0 L 833.0,173.0 L 834.0,173.0 L 835.0,174.0 L 835.0,175.0 L 836.0,176.0 L 835.0,177.0 L 836.0,176.0 L 842.0,182.0 L 842.0,183.0 L 843.0,184.0 L 841.0,186.0 L 840.0,185.0 L 841.0,186.0 L 843.0,184.0 L 845.0,186.0 L 844.0,187.0 L 843.0,187.0 L 844.0,187.0 L 845.0,188.0 L 846.0,187.0 L 847.0,188.0 L 847.0,189.0 L 848.0,189.0 L 849.0,190.0 L 849.0,191.0 L 853.0,195.0 L 853.0,196.0 L 852.0,197.0 L 854.0,199.0 L 855.0,198.0 L 857.0,200.0 L 857.0,201.0 L 858.0,202.0 L 857.0,203.0 L 858.0,202.0 L 861.0,205.0 L 861.0,206.0 L 862.0,207.0 L 862.0,208.0 L 866.0,212.0 L 866.0,213.0 L 868.0,215.0 L 867.0,216.0 L 866.0,216.0 L 867.0,216.0 L 868.0,215.0 L 869.0,216.0 L 869.0,217.0 L 872.0,220.0 L 872.0,221.0 L 870.0,223.0 L 869.0,222.0 L 868.0,223.0 L 869.0,222.0 L 870.0,223.0 L 872.0,221.0 L 874.0,223.0 L 874.0,224.0 L 877.0,227.0 L 877.0,228.0 L 878.0,229.0 L 878.0,230.0 L 880.0,232.0 L 880.0,233.0 L 881.0,234.0 L 880.0,235.0 L 881.0,234.0 L 882.0,235.0 L 882.0,236.0 L 881.0,237.0 L 882.0,238.0 L 881.0,239.0 L 881.0,240.0 L 881.0,239.0 L 883.0,237.0 L 884.0,238.0 L 884.0,239.0 L 885.0,240.0 L 885.0,241.0 L 887.0,243.0 L 887.0,244.0 L 889.0,246.0 L 889.0,247.0 L 888.0,248.0 L 889.0,249.0 L 890.0,249.0 L 892.0,251.0 L 892.0,252.0 L 893.0,253.0 L 892.0,254.0 L 893.0,253.0 L 894.0,254.0 L 894.0,255.0 L 895.0,256.0 L 895.0,257.0 L 896.0,258.0 L 896.0,259.0 L 897.0,260.0 L 897.0,261.0 L 899.0,263.0 L 899.0,264.0 L 900.0,265.0 L 900.0,266.0 L 901.0,267.0 L 901.0,268.0 L 902.0,269.0 L 901.0,270.0 L 902.0,270.0 L 904.0,272.0 L 904.0,273.0 L 905.0,274.0 L 905.0,275.0 L 906.0,276.0 L 906.0,277.0 L 907.0,278.0 L 907.0,279.0 L 908.0,280.0 L 908.0,281.0 L 909.0,282.0 L 909.0,283.0 L 908.0,284.0 L 909.0,283.0 L 910.0,284.0 L 910.0,285.0 L 911.0,286.0 L 911.0,287.0 L 912.0,288.0 L 912.0,289.0 L 913.0,290.0 L 913.0,292.0 L 914.0,293.0 L 914.0,294.0 L 915.0,295.0 L 915.0,296.0 L 916.0,297.0 L 916.0,298.0 L 917.0,299.0 L 917.0,300.0 L 916.0,301.0 L 916.0,302.0 L 916.0,301.0 L 917.0,300.0 L 918.0,301.0 L 918.0,302.0 L 919.0,303.0 L 919.0,305.0 L 920.0,306.0 L 920.0,307.0 L 921.0,308.0 L 921.0,310.0 L 920.0,311.0 L 921.0,310.0 L 922.0,311.0 L 922.0,312.0 L 923.0,313.0 L 923.0,314.0 L 924.0,315.0 L 924.0,317.0 L 925.0,318.0 L 925.0,319.0 L 926.0,320.0 L 926.0,322.0 L 927.0,323.0 L 927.0,324.0 L 928.0,325.0 L 928.0,327.0 L 929.0,328.0 L 929.0,330.0 L 930.0,331.0 L 930.0,333.0 L 931.0,334.0 L 931.0,336.0 L 932.0,337.0 L 932.0,338.0 L 933.0,339.0 L 933.0,342.0 L 934.0,343.0 L 934.0,345.0 L 935.0,346.0 L 935.0,348.0 L 936.0,349.0 L 936.0,351.0 L 937.0,352.0 L 937.0,354.0 L 938.0,355.0 L 938.0,357.0 L 939.0,358.0 L 939.0,361.0 L 940.0,362.0 L 940.0,365.0 L 941.0,366.0 L 941.0,368.0 L 942.0,369.0 L 942.0,372.0 L 943.0,373.0 L 943.0,376.0 L 944.0,377.0 L 944.0,380.0 L 945.0,381.0 L 945.0,384.0 L 946.0,385.0 L 946.0,389.0 L 947.0,390.0 L 947.0,393.0 L 948.0,394.0 L 948.0,398.0 L 949.0,399.0 L 949.0,403.0 L 950.0,404.0 L 950.0,410.0 L 951.0,411.0 L 951.0,415.0 L 952.0,416.0 L 952.0,422.0 L 953.0,423.0 L 953.0,429.0 L 954.0,430.0 L 954.0,437.0 L 955.0,438.0 L 955.0,447.0 L 956.0,448.0 L 956.0,460.0 L 957.0,461.0 L 957.0,490.0 L 958.0,491.0 L 957.0,492.0 L 957.0,518.0 L 956.0,519.0 L 956.0,530.0 L 955.0,531.0 L 955.0,541.0 L 954.0,542.0 L 954.0,549.0 L 953.0,550.0 L 953.0,556.0 L 952.0,557.0 L 952.0,563.0 L 951.0,564.0 L 951.0,569.0 L 950.0,570.0 L 950.0,574.0 L 949.0,575.0 L 949.0,576.0 L 950.0,576.0 L 951.0,577.0 L 953.0,577.0 L 954.0,578.0 L 955.0,578.0 L 956.0,579.0 L 957.0,579.0 L 958.0,580.0 L 960.0,580.0 L 961.0,581.0 L 960.0,582.0 L 961.0,581.0 L 963.0,581.0 L 964.0,582.0 L 963.0,583.0 L 964.0,582.0 L 965.0,582.0 L 966.0,583.0 L 967.0,583.0 L 969.0,585.0 L 971.0,585.0 L 971.0,582.0 L 972.0,581.0 L 972.0,576.0 L 973.0,575.0 L 973.0,570.0 L 974.0,569.0 L 974.0,564.0 L 975.0,563.0 L 975.0,558.0 L 976.0,557.0 L 976.0,550.0 L 977.0,549.0 L 977.0,540.0 L 978.0,539.0 L 978.0,528.0 L 979.0,527.0 L 979.0,516.0 L 980.0,515.0 L 979.0,514.0 L 979.0,512.0 L 980.0,511.0 L 980.0,467.0 L 979.0,466.0 L 979.0,464.0 L 980.0,463.0 L 979.0,462.0 L 979.0,451.0 L 978.0,450.0 L 978.0,440.0 L 977.0,439.0 L 977.0,430.0 L 976.0,429.0 L 976.0,422.0 L 975.0,421.0 L 975.0,416.0 L 974.0,415.0 L 974.0,410.0 L 973.0,409.0 L 973.0,404.0 L 972.0,403.0 L 972.0,398.0 L 971.0,397.0 L 971.0,393.0 L 970.0,392.0 L 970.0,388.0 L 969.0,387.0 L 969.0,384.0 L 968.0,383.0 L 968.0,379.0 L 967.0,378.0 L 967.0,375.0 L 966.0,374.0 L 966.0,371.0 L 965.0,370.0 L 965.0,366.0 L 964.0,365.0 L 964.0,362.0 L 963.0,361.0 L 963.0,360.0 L 962.0,359.0 L 962.0,356.0 L 961.0,355.0 L 961.0,352.0 L 960.0,351.0 L 960.0,349.0 L 959.0,348.0 L 959.0,346.0 L 958.0,345.0 L 958.0,342.0 L 957.0,341.0 L 957.0,339.0 L 956.0,338.0 L 956.0,336.0 L 955.0,335.0 L 955.0,333.0 L 954.0,332.0 L 954.0,331.0 L 953.0,330.0 L 953.0,328.0 L 952.0,327.0 L 952.0,325.0 L 951.0,324.0 L 951.0,322.0 L 950.0,321.0 L 950.0,319.0 L 949.0,318.0 L 949.0,317.0 L 948.0,316.0 L 948.0,314.0 L 947.0,313.0 L 947.0,311.0 L 946.0,310.0 L 946.0,309.0 L 945.0,308.0 L 945.0,306.0 L 944.0,305.0 L 944.0,304.0 L 943.0,303.0 L 943.0,301.0 L 942.0,300.0 L 942.0,299.0 L 941.0,298.0 L 941.0,297.0 L 940.0,296.0 L 940.0,294.0 L 939.0,293.0 L 939.0,292.0 L 938.0,291.0 L 938.0,290.0 L 937.0,289.0 L 937.0,287.0 L 936.0,286.0 L 936.0,285.0 L 935.0,284.0 L 935.0,283.0 L 934.0,282.0 L 934.0,281.0 L 933.0,280.0 L 933.0,279.0 L 932.0,278.0 L 932.0,277.0 L 933.0,276.0 L 934.0,277.0 L 933.0,276.0 L 932.0,277.0 L 931.0,276.0 L 931.0,275.0 L 932.0,274.0 L 931.0,275.0 L 930.0,274.0 L 930.0,273.0 L 929.0,272.0 L 929.0,270.0 L 927.0,268.0 L 927.0,267.0 L 926.0,266.0 L 926.0,265.0 L 927.0,264.0 L 927.0,263.0 L 927.0,264.0 L 926.0,265.0 L 925.0,264.0 L 925.0,263.0 L 924.0,262.0 L 924.0,261.0 L 923.0,260.0 L 923.0,259.0 L 922.0,258.0 L 923.0,257.0 L 922.0,257.0 L 921.0,256.0 L 921.0,255.0 L 919.0,253.0 L 919.0,252.0 L 918.0,251.0 L 918.0,250.0 L 917.0,249.0 L 917.0,248.0 L 916.0,247.0 L 917.0,246.0 L 916.0,247.0 L 915.0,246.0 L 915.0,245.0 L 916.0,244.0 L 915.0,245.0 L 914.0,244.0 L 914.0,243.0 L 913.0,242.0 L 914.0,241.0 L 913.0,241.0 L 911.0,239.0 L 911.0,238.0 L 910.0,237.0 L 910.0,236.0 L 908.0,234.0 L 908.0,233.0 L 907.0,232.0 L 907.0,231.0 L 905.0,229.0 L 905.0,228.0 L 903.0,226.0 L 903.0,225.0 L 902.0,224.0 L 902.0,223.0 L 900.0,221.0 L 900.0,220.0 L 898.0,218.0 L 898.0,217.0 L 897.0,216.0 L 897.0,215.0 L 895.0,213.0 L 896.0,212.0 L 895.0,213.0 L 893.0,211.0 L 893.0,210.0 L 891.0,208.0 L 891.0,207.0 L 888.0,204.0 L 888.0,203.0 L 889.0,202.0 L 888.0,201.0 L 887.0,202.0 L 886.0,201.0 L 886.0,200.0 L 885.0,199.0 L 886.0,198.0 L 885.0,199.0 L 883.0,197.0 L 883.0,196.0 L 882.0,195.0 L 883.0,194.0 L 883.0,193.0 L 882.0,192.0 L 883.0,193.0 L 883.0,194.0 L 882.0,195.0 L 880.0,193.0 L 880.0,192.0 L 877.0,189.0 L 877.0,188.0 L 876.0,187.0 L 877.0,186.0 L 876.0,185.0 L 875.0,186.0 L 873.0,184.0 L 873.0,183.0 L 871.0,181.0 L 872.0,180.0 L 873.0,180.0 L 873.0,178.0 L 873.0,179.0 L 871.0,181.0 L 868.0,178.0 L 869.0,177.0 L 868.0,177.0 L 863.0,172.0 L 863.0,171.0 L 864.0,170.0 L 862.0,168.0 L 861.0,169.0 L 859.0,167.0 L 859.0,166.0 L 860.0,165.0 L 859.0,164.0 L 860.0,165.0 L 859.0,166.0 L 858.0,166.0 L 857.0,165.0 L 857.0,164.0 L 856.0,163.0 L 857.0,162.0 L 855.0,160.0 L 854.0,161.0 L 852.0,159.0 L 853.0,158.0 L 852.0,159.0 L 848.0,155.0 L 849.0,154.0 L 848.0,155.0 L 846.0,153.0 L 846.0,152.0 L 845.0,151.0 L 845.0,150.0 L 841.0,146.0 L 840.0,146.0 L 836.0,142.0 L 837.0,141.0 L 838.0,141.0 L 837.0,141.0 L 836.0,142.0 L 834.0,140.0 L 837.0,137.0 L 839.0,139.0 L 837.0,137.0 L 834.0,140.0 L 833.0,139.0 L 833.0,137.0 L 832.0,136.0 L 831.0,137.0 L 827.0,133.0 L 826.0,133.0 L 825.0,132.0 L 826.0,131.0 L 826.0,130.0 L 827.0,129.0 L 828.0,129.0 L 829.0,130.0 L 830.0,129.0 L 829.0,128.0 L 828.0,129.0 L 827.0,129.0 L 826.0,130.0 L 825.0,130.0 L 824.0,131.0 L 820.0,127.0 L 822.0,125.0 L 821.0,126.0 L 819.0,124.0 L 818.0,125.0 L 817.0,125.0 L 816.0,124.0 L 817.0,123.0 L 816.0,123.0 L 815.0,122.0 L 814.0,122.0 L 813.0,121.0 L 813.0,120.0 L 815.0,118.0 L 813.0,120.0 L 812.0,120.0 L 808.0,116.0 L 809.0,115.0 L 808.0,116.0 L 807.0,116.0 L 805.0,114.0 L 806.0,113.0 L 805.0,114.0 L 801.0,110.0 L 800.0,110.0 L 796.0,106.0 L 797.0,105.0 L 796.0,106.0 L 795.0,106.0 L 793.0,104.0 L 792.0,104.0 L 790.0,102.0 L 791.0,101.0 L 790.0,100.0 L 789.0,101.0 L 787.0,99.0 L 786.0,99.0 L 784.0,97.0 L 783.0,97.0 L 781.0,95.0 L 782.0,94.0 L 781.0,93.0 L 780.0,94.0 L 779.0,94.0 L 777.0,92.0 L 777.0,91.0 L 775.0,91.0 L 772.0,88.0 L 771.0,88.0 L 770.0,87.0 L 771.0,86.0 L 772.0,86.0 L 771.0,86.0 L 770.0,87.0 L 769.0,86.0 L 768.0,86.0 L 766.0,84.0 L 765.0,84.0 L 762.0,81.0 L 761.0,81.0 L 760.0,80.0 L 759.0,80.0 L 758.0,79.0 L 759.0,78.0 L 758.0,79.0 L 757.0,78.0 L 756.0,78.0 L 755.0,77.0 L 754.0,77.0 L 753.0,76.0 L 753.0,75.0 L 752.0,75.0 L 751.0,74.0 L 750.0,74.0 L 749.0,73.0 L 748.0,73.0 L 746.0,71.0 L 745.0,71.0 L 744.0,70.0 L 743.0,70.0 L 741.0,68.0 L 742.0,67.0 L 741.0,68.0 L 740.0,68.0 L 739.0,67.0 L 738.0,67.0 L 737.0,66.0 L 736.0,66.0 L 734.0,64.0 L 733.0,64.0 L 731.0,62.0 L 730.0,62.0 L 729.0,61.0 L 728.0,61.0 L 727.0,60.0 L 726.0,60.0 L 725.0,59.0 L 726.0,58.0 L 725.0,59.0 L 724.0,59.0 L 723.0,58.0 L 722.0,58.0 L 721.0,57.0 L 720.0,57.0 L 718.0,55.0 L 718.0,54.0 L 715.0,54.0 L 713.0,52.0 L 711.0,52.0 L 710.0,51.0 L 709.0,51.0 L 708.0,50.0 L 707.0,50.0 L 706.0,49.0 L 705.0,49.0 L 704.0,48.0 L 703.0,48.0 L 702.0,47.0 L 701.0,47.0 L 700.0,46.0 L 698.0,46.0 L 697.0,45.0 L 696.0,45.0 L 695.0,44.0 L 694.0,44.0 L 693.0,43.0 L 694.0,42.0 L 695.0,42.0 L 694.0,42.0 L 693.0,43.0 L 692.0,43.0 L 691.0,42.0 L 690.0,42.0 L 689.0,41.0 L 688.0,41.0 L 687.0,40.0 L 685.0,40.0 L 684.0,39.0 L 683.0,39.0 L 681.0,37.0 L 678.0,37.0 L 677.0,36.0 L 678.0,35.0 L 677.0,36.0 L 676.0,36.0 L 675.0,35.0 L 674.0,35.0 L 673.0,34.0 L 671.0,34.0 L 670.0,33.0 L 668.0,33.0 L 667.0,32.0 L 666.0,32.0 L 665.0,31.0 L 663.0,31.0 L 662.0,30.0 L 660.0,30.0 L 659.0,29.0 L 658.0,29.0 L 657.0,28.0 L 655.0,28.0 L 654.0,27.0 L 652.0,27.0 L 651.0,26.0 L 650.0,26.0 L 649.0,25.0 L 646.0,25.0 L 645.0,24.0 L 643.0,24.0 L 642.0,23.0 L 640.0,23.0 L 639.0,22.0 L 637.0,22.0 L 636.0,21.0 L 634.0,21.0 L 633.0,20.0 L 630.0,20.0 L 629.0,19.0 L 627.0,19.0 L 626.0,18.0 L 623.0,18.0 L 622.0,17.0 L 620.0,17.0 L 619.0,16.0 L 616.0,16.0 L 615.0,15.0 L 612.0,15.0 L 611.0,14.0 L 608.0,14.0 L 607.0,13.0 L 604.0,13.0 L 603.0,12.0 L 600.0,12.0 L 599.0,11.0 L 595.0,11.0 L 594.0,10.0 L 591.0,10.0 L 590.0,9.0 L 586.0,9.0 L 585.0,8.0 L 580.0,8.0 L 579.0,7.0 L 575.0,7.0 L 574.0,6.0 L 570.0,6.0 L 569.0,5.0 L 563.0,5.0 L 562.0,4.0 L 555.0,4.0 L 554.0,3.0 L 548.0,3.0 L 547.0,2.0 L 538.0,2.0 L 537.0,1.0 L 525.0,1.0 L 524.0,0.0 Z" fill="#232223" /><path d="M 439.0,0.0 Z" fill="#efefef" /></svg>